<svg xmlns="http://www.w3.org/2000/svg" xmlns:xlink="http://www.w3.org/1999/xlink" width="500" zoomAndPan="magnify" viewBox="0 0 375 374.999991" height="500" preserveAspectRatio="xMidYMid meet" version="1.0"><defs><g/><clipPath id="41b138a3e9"><path d="M 187.5 0 C 83.945312 0 0 83.945312 0 187.5 C 0 291.054688 83.945312 375 187.5 375 C 291.054688 375 375 291.054688 375 187.5 C 375 83.945312 291.054688 0 187.5 0 Z M 187.5 0 " clip-rule="nonzero"/></clipPath><clipPath id="1ac6d32174"><path d="M 176 311 L 195 311 L 195 330.480469 L 176 330.480469 Z M 176 311 " clip-rule="nonzero"/></clipPath><clipPath id="701726d54b"><path d="M 105.148438 109.230469 L 158 109.230469 L 158 184 L 105.148438 184 Z M 105.148438 109.230469 " clip-rule="nonzero"/></clipPath><clipPath id="d2c995c3b5"><path d="M 217 109.230469 L 270 109.230469 L 270 184 L 217 184 Z M 217 109.230469 " clip-rule="nonzero"/></clipPath></defs><g clip-path="url(#41b138a3e9)"><rect x="-37.5" width="450" fill="#fd874c" y="-37.499999" height="449.999989" fill-opacity="1"/></g><path fill="#ffffff" d="M 133.363281 280.121094 C 132.726562 280.046875 131.359375 280.285156 130.414062 280.242188 C 130.5 280.992188 130.011719 283.324219 131.101562 285.179688 C 131.648438 286.113281 132.0625 286.59375 134.234375 289.371094 C 133.546875 287.246094 133.230469 280.675781 133.363281 280.121094 " fill-opacity="1" fill-rule="nonzero"/><path fill="#ffffff" d="M 144.304688 217.742188 C 144.304688 217.742188 163.203125 217.058594 165.492188 217.386719 C 166.210938 213 166.753906 213.503906 165.816406 213.480469 C 157.734375 213.253906 148.011719 210.085938 145.851562 209.886719 C 143.84375 210.046875 145.050781 211.128906 144.40625 213.273438 C 144.488281 215.480469 143.085938 217.476562 144.304688 217.742188 " fill-opacity="1" fill-rule="nonzero"/><path fill="#ffffff" d="M 133.261719 279.367188 C 133.261719 279.367188 132.410156 271.972656 133.261719 265.554688 C 133.75 261.902344 132.417969 261.089844 130.609375 262.210938 C 129.746094 262.746094 129.839844 262.710938 129.78125 262.945312 C 128.746094 273.21875 127.859375 275.46875 129.082031 278.570312 C 130.148438 279.730469 131.902344 278.5625 133.261719 279.367188 " fill-opacity="1" fill-rule="nonzero"/><path fill="#ffffff" d="M 146.773438 247.207031 C 146.371094 244.898438 145.976562 245.113281 144.578125 244.386719 C 144.261719 244.46875 133.410156 249.671875 129.484375 259.453125 C 127.5625 264.242188 129.402344 260.328125 132.882812 259.75 C 136.070312 259.21875 137.445312 261.019531 139.808594 255.277344 C 141.742188 250.585938 145.582031 247.5625 146.773438 247.207031 " fill-opacity="1" fill-rule="nonzero"/><path fill="#ffffff" d="M 144.238281 283.535156 C 144.082031 283.773438 143.535156 284.183594 143.429688 284.890625 C 143.214844 286.386719 144.390625 286.925781 144.886719 290.046875 C 145.019531 290.859375 144.996094 290.859375 145.0625 290.632812 C 146.160156 286.636719 145.671875 287.316406 145.550781 284.625 C 145.398438 284.03125 145.640625 284.347656 144.238281 283.535156 " fill-opacity="1" fill-rule="nonzero"/><path fill="#ffffff" d="M 156.511719 270.609375 C 154.753906 275.355469 144.8125 281.070312 144.183594 282.382812 C 144.183594 282.382812 145.867188 283.257812 146.324219 283.542969 C 147.5 282.738281 146.183594 284.191406 149.488281 281.171875 C 152.652344 278.277344 157.324219 273.375 157.324219 273.375 C 157.175781 272.796875 156.898438 271.070312 156.511719 270.609375 " fill-opacity="1" fill-rule="nonzero"/><path fill="#ffffff" d="M 245.148438 280.242188 C 244.207031 280.285156 242.839844 280.046875 242.203125 280.121094 C 242.332031 280.675781 242.019531 287.246094 241.328125 289.371094 C 243.503906 286.59375 243.917969 286.113281 244.464844 285.179688 C 245.554688 283.324219 245.066406 280.992188 245.148438 280.242188 " fill-opacity="1" fill-rule="nonzero"/><path fill="#ffffff" d="M 244.957031 262.210938 C 243.148438 261.089844 241.816406 261.902344 242.300781 265.554688 C 243.152344 271.972656 242.300781 279.367188 242.300781 279.367188 C 243.664062 278.5625 245.417969 279.730469 246.484375 278.570312 C 247.707031 275.46875 246.820312 273.21875 245.78125 262.945312 C 245.726562 262.710938 245.820312 262.746094 244.957031 262.210938 " fill-opacity="1" fill-rule="nonzero"/><path fill="#ffffff" d="M 219.054688 270.609375 C 218.667969 271.070312 218.386719 272.796875 218.242188 273.375 C 218.242188 273.375 222.914062 278.277344 226.078125 281.171875 C 229.382812 284.191406 228.0625 282.738281 229.242188 283.542969 C 229.699219 283.257812 231.382812 282.382812 231.382812 282.382812 C 230.753906 281.070312 220.8125 275.355469 219.054688 270.609375 " fill-opacity="1" fill-rule="nonzero"/><path fill="#ffffff" d="M 145.894531 243.675781 C 149.597656 245.25 146.359375 246.578125 149.589844 249.34375 C 150.304688 249.203125 150.988281 248.375 151.476562 247.875 C 154.285156 244.988281 154.222656 245.492188 157.960938 243.953125 C 159.925781 243.144531 163.300781 240.019531 166.984375 240.082031 C 166.789062 239.546875 166.601562 239.007812 166.425781 238.460938 C 162.089844 237.308594 163.09375 237.445312 155.105469 240.035156 C 148.269531 242.253906 146.964844 240.535156 144.660156 242.496094 C 144.226562 242.859375 145.375 243.453125 145.894531 243.675781 " fill-opacity="1" fill-rule="nonzero"/><path fill="#ffffff" d="M 160.386719 269.601562 C 162.34375 266.15625 162.460938 263.980469 162.640625 262.910156 C 162.203125 262.164062 161.746094 261.382812 161.140625 260.84375 C 160.078125 263.292969 159.082031 262.652344 156.898438 269.699219 C 158.710938 270.886719 157.238281 274.152344 160.386719 269.601562 " fill-opacity="1" fill-rule="nonzero"/><path fill="#ffffff" d="M 166.863281 254.128906 C 170.847656 245.957031 170.589844 247.71875 169.476562 245.503906 C 168.703125 246.40625 167.71875 247.105469 166.949219 248.011719 C 166.078125 249.035156 164.425781 253.835938 162.777344 255.886719 C 161.824219 257.070312 160.222656 257.597656 159.644531 259.019531 C 161.269531 258.390625 163.625 261.796875 163.96875 262.957031 C 165.269531 260.695312 164.851562 258.246094 166.863281 254.128906 " fill-opacity="1" fill-rule="nonzero"/><path fill="#ffffff" d="M 130.03125 115.722656 C 126.8125 120.960938 128.601562 120.097656 128.921875 123.410156 C 129.644531 122.835938 129.847656 123.359375 129.617188 123.621094 C 130.5625 123.710938 131.902344 123.574219 132.046875 122.574219 C 132.378906 120.332031 132.1875 121.402344 132.804688 120.242188 C 134.046875 117.902344 131.949219 117.804688 131.605469 117.53125 C 131.179688 117.195312 130.511719 114.945312 130.03125 115.722656 " fill-opacity="1" fill-rule="nonzero"/><path fill="#ffffff" d="M 130.378906 127.644531 C 130.738281 128.222656 131.277344 128.511719 131.734375 129.015625 C 131.859375 128.949219 131.980469 128.878906 132.101562 128.804688 C 131.683594 127.828125 131.789062 126.835938 131.5 125.804688 C 131.335938 125.21875 130.996094 124.890625 130.734375 124.34375 C 128.019531 125.320312 128.558594 123.117188 129.011719 126.171875 C 129.847656 125.820312 130.066406 127.132812 130.378906 127.644531 " fill-opacity="1" fill-rule="nonzero"/><path fill="#ffffff" d="M 129.898438 131.8125 C 130.394531 131.414062 131.65625 131.195312 131.570312 130.402344 C 131.46875 129.46875 130.277344 129.023438 129.832031 128.25 C 129.535156 127.730469 128.875 124.636719 129.304688 130.308594 C 129.492188 132.800781 129.554688 132.089844 129.898438 131.8125 " fill-opacity="1" fill-rule="nonzero"/><path fill="#ffffff" d="M 130.851562 133.746094 C 131.203125 133.5 131.429688 133.089844 131.839844 132.945312 C 131.46875 132.535156 130.542969 132.191406 130.277344 133.203125 C 130.183594 133.5625 130.457031 134.027344 130.851562 133.746094 " fill-opacity="1" fill-rule="nonzero"/><path fill="#ffffff" d="M 131.394531 135.105469 C 129.125 132.941406 131.871094 139.359375 133.671875 138.265625 C 133.90625 138.125 133.859375 138.097656 133.464844 137.34375 C 132.648438 137.09375 132.132812 135.808594 131.394531 135.105469 " fill-opacity="1" fill-rule="nonzero"/><path fill="#ffffff" d="M 160.71875 226.59375 C 157.695312 226.878906 158.238281 226.738281 158.675781 227.523438 C 159.589844 229.167969 158.289062 230.3125 160.179688 232.71875 C 160.933594 232.429688 161.621094 231.332031 165.253906 231.0625 C 165.125 229.644531 165.070312 228.195312 165.070312 226.742188 C 163.792969 226.84375 162.9375 226.382812 160.71875 226.59375 " fill-opacity="1" fill-rule="nonzero"/><path fill="#ffffff" d="M 140.367188 233.363281 C 146.566406 233.8125 156.152344 230.527344 158.367188 231.539062 C 157.871094 230.207031 158.359375 228.550781 157.34375 227.503906 C 154.230469 227.625 142.132812 224.695312 139.28125 225.988281 C 138.414062 229.050781 138.960938 229.308594 136.910156 232.402344 C 137.382812 233.0625 139.558594 233.300781 140.367188 233.363281 " fill-opacity="1" fill-rule="nonzero"/><path fill="#ffffff" d="M 120.128906 218.457031 C 120.335938 218.492188 120.046875 218.582031 120.558594 218.359375 C 120.570312 218.316406 120.597656 218.277344 120.648438 218.253906 C 121.3125 217.933594 121.816406 217.578125 122.34375 217.070312 C 122.757812 216.671875 122.777344 217.394531 120.582031 213.515625 C 119.746094 212.039062 118.875 210.480469 118.441406 208.820312 C 117.546875 212.785156 118.820312 215.15625 120.128906 218.457031 " fill-opacity="1" fill-rule="nonzero"/><path fill="#ffffff" d="M 109.617188 206.179688 C 109.449219 205.742188 108.503906 214.445312 113.628906 219.4375 C 114.769531 220.550781 116.125 221.0625 117.527344 221.6875 C 117.871094 221.285156 118.1875 221.046875 118.75 220.324219 C 114.773438 218.691406 110.328125 209.691406 109.617188 206.179688 " fill-opacity="1" fill-rule="nonzero"/><path fill="#ffffff" d="M 154.078125 181.847656 C 151.746094 180.351562 152.625 178.796875 151.058594 177.902344 C 148.558594 178.085938 145.363281 178.054688 144.832031 179.679688 C 144.292969 181.359375 142.914062 183.785156 142.207031 183.753906 C 140.035156 184.957031 142.445312 184.101562 140.324219 187.621094 C 139.386719 189.175781 139.457031 189.160156 139.46875 190.074219 C 142.152344 195.398438 150.800781 189.816406 155.082031 191.742188 C 156.742188 192.484375 156.933594 193.21875 157.824219 192.402344 C 161.09375 189.4375 163.585938 192.355469 163.167969 186.390625 C 163.085938 185.214844 161.5625 183.878906 160.46875 183.617188 C 159.28125 183.332031 158.167969 183.992188 157.003906 183.675781 C 156.023438 183.410156 154.871094 182.351562 154.078125 181.847656 " fill-opacity="1" fill-rule="nonzero"/><path fill="#ffffff" d="M 137.035156 227.761719 C 137.117188 226.574219 137.722656 227.851562 132.585938 224.75 C 129.839844 223.089844 128.289062 221.53125 126.1875 219.132812 C 125.140625 217.9375 125.152344 217.480469 124.511719 217.171875 C 124.003906 216.933594 124.0625 217.507812 122.804688 218.359375 C 121.445312 219.277344 121.089844 219.144531 120.703125 219.382812 C 120.867188 220.835938 118.527344 222.164062 118.242188 223.171875 C 119.558594 223.988281 121.167969 223.972656 122.613281 224.492188 C 127.527344 226.257812 130.789062 229.164062 135.730469 230.695312 C 136.386719 229.351562 136.933594 229.230469 137.035156 227.761719 " fill-opacity="1" fill-rule="nonzero"/><path fill="#ffffff" d="M 153.160156 197.066406 C 154.050781 196.953125 158.050781 195.660156 160.585938 198.039062 C 161.660156 198.539062 162.800781 199.945312 164.578125 200.847656 C 166.167969 201.65625 168.710938 202.351562 170.484375 203.53125 C 171.691406 201.527344 172.792969 200.210938 173.890625 198.171875 C 173.050781 197.777344 172.574219 196.925781 171.199219 195.9375 C 168.316406 192.929688 167.667969 194.101562 165.070312 190.78125 C 164.015625 189.433594 161.917969 191.660156 160.019531 192.1875 C 158.296875 192.660156 156.949219 195.542969 154.953125 194.019531 C 153.257812 192.726562 151.703125 192.238281 149.578125 192.488281 C 150.847656 194.3125 149.402344 197.535156 153.160156 197.066406 " fill-opacity="1" fill-rule="nonzero"/><path fill="#ffffff" d="M 125.382812 196.007812 C 125.355469 196.015625 125.328125 196.023438 125.300781 196.035156 C 125.328125 196.019531 125.386719 195.980469 125.382812 196.007812 Z M 127.609375 204.4375 C 128.703125 203.308594 130.089844 202.773438 130.976562 202.402344 C 128.957031 200.589844 128.132812 197.332031 125.488281 190.445312 C 125.574219 195.832031 126.113281 194.757812 124.429688 195.625 C 123.457031 196.128906 123.835938 197.078125 122.289062 198.386719 C 125.984375 201.382812 125.25 202.167969 127.609375 204.4375 " fill-opacity="1" fill-rule="nonzero"/><path fill="#ffffff" d="M 133.214844 211.933594 C 136.125 213.507812 141.328125 214.640625 142.457031 214.839844 C 142.847656 213.578125 142.554688 212.289062 142.699219 211.023438 C 142.167969 210.976562 141.621094 210.632812 141.15625 210.382812 C 136.585938 207.90625 137.832031 207.382812 135.710938 205.253906 C 134.976562 204.515625 133.765625 203.714844 132.714844 203.871094 C 128.375 205.640625 126.773438 206.253906 127.828125 207.585938 C 128.503906 208.4375 131.953125 211.253906 133.214844 211.933594 " fill-opacity="1" fill-rule="nonzero"/><path fill="#ffffff" d="M 122.039062 197.179688 C 122.460938 196.824219 122.855469 196.445312 123.203125 195.988281 C 123.253906 195.921875 123.320312 195.902344 123.382812 195.917969 C 122.859375 195.074219 122.820312 193.90625 122.554688 192.988281 C 121.742188 190.207031 120.484375 190.371094 120.550781 185.570312 C 115.269531 197.460938 121.8125 194.285156 122.039062 197.179688 " fill-opacity="1" fill-rule="nonzero"/><path fill="#ffffff" d="M 200.285156 312.21875 C 195.199219 313.484375 195.832031 310.742188 196.039062 312.980469 C 196.53125 315.640625 195.121094 323.449219 191.15625 327.582031 C 198.652344 330.09375 201.433594 328.085938 208.183594 326.648438 C 207.796875 319.90625 203.28125 313.515625 200.285156 312.21875 " fill-opacity="1" fill-rule="nonzero"/><path fill="#ffffff" d="M 202.40625 301.730469 C 201.320312 301.074219 200.183594 299.699219 198.921875 300.339844 C 195.9375 302.808594 188.140625 302.800781 185.25 302.625 C 175.996094 302.046875 175.160156 296.523438 168.832031 300.617188 C 170.722656 301.984375 171.722656 303.550781 172.972656 303.964844 C 173.46875 304.128906 173.375 303.921875 172.691406 304.320312 C 170.175781 305.75 170.675781 308.445312 169.539062 309.914062 C 172.839844 311.476562 173.96875 310.691406 174.960938 310.28125 C 177.792969 307.804688 177.808594 310.949219 181.550781 311.046875 C 195.710938 311.421875 189.417969 311.824219 194.410156 310.480469 C 195.183594 310.273438 195.792969 310.675781 196.519531 310.824219 C 198.027344 311.128906 199.554688 309.949219 201.054688 310.285156 C 200.523438 309.324219 200.511719 308.417969 199.859375 307.320312 C 198.902344 305.703125 199.253906 307.613281 197.046875 308.257812 C 196.855469 308.316406 196.707031 308.0625 196.851562 307.921875 C 198.496094 306.332031 199.800781 301.707031 202.40625 301.730469 " fill-opacity="1" fill-rule="nonzero"/><g clip-path="url(#1ac6d32174)"><path fill="#ffffff" d="M 194.3125 312.015625 C 192.773438 312.347656 193.628906 313.347656 186.539062 312.566406 C 184.746094 312.367188 183.203125 312.800781 181.410156 312.613281 C 179.289062 312.730469 178.792969 311.289062 176.871094 311.523438 C 176.90625 311.761719 178.777344 321.828125 181.542969 325.929688 C 183.484375 328.808594 184.644531 328.941406 185.617188 330.089844 C 185.796875 330.300781 190.042969 327.039062 192.15625 323.058594 C 193.660156 320.226562 195.617188 314.960938 194.3125 312.015625 " fill-opacity="1" fill-rule="nonzero"/></g><path fill="#ffffff" d="M 201.191406 305.175781 C 200.3125 306.671875 201.410156 304.59375 202.644531 309.65625 C 202.746094 310.058594 203.625 311.691406 202.871094 311.640625 C 202.601562 311.621094 202.320312 311.636719 202.03125 311.675781 C 204.707031 313.097656 208.027344 319.257812 208.921875 323.089844 C 210.019531 322.605469 211.867188 323.257812 215.515625 319.488281 C 214.542969 317.8125 212.96875 310.910156 201.191406 305.175781 " fill-opacity="1" fill-rule="nonzero"/><path fill="#ffffff" d="M 167.773438 310.699219 C 167.28125 310.429688 167.851562 310.035156 168.0625 309.605469 C 168.101562 308.464844 168.472656 307.082031 168.984375 306.089844 C 162.167969 306.574219 159.515625 313.410156 155.503906 317.355469 C 156.902344 318.074219 156.253906 318.878906 161.238281 321.058594 C 162.277344 321.4375 162.59375 321.539062 163.132812 321.53125 C 163.304688 321.132812 163.953125 319.601562 164.421875 318.179688 C 166.949219 310.449219 170.929688 312.429688 167.773438 310.699219 " fill-opacity="1" fill-rule="nonzero"/><path fill="#ffffff" d="M 174.492188 311.96875 C 170.980469 313.003906 170.707031 311.125 169.339844 312.363281 C 165.078125 316.234375 165.8125 321.125 163.421875 324.207031 C 164.496094 325.484375 166.3125 325.945312 168.148438 326.542969 C 173.773438 328.375 176.171875 327.550781 179.601562 326.78125 C 177.085938 322.878906 175.507812 313.429688 175.488281 312.410156 C 175.304688 311.519531 175.625 311.636719 174.492188 311.96875 " fill-opacity="1" fill-rule="nonzero"/><path fill="#ffffff" d="M 195.304688 292.34375 C 194.027344 292.992188 190.695312 293.605469 189.265625 293.710938 C 177.285156 294.585938 174.707031 288.644531 169.609375 291.105469 C 167.800781 292.4375 167.636719 291.585938 169.695312 294.121094 C 171.136719 295.894531 170.558594 295.882812 173.203125 297.308594 C 176.488281 297.753906 178.949219 301.0625 184.835938 301.441406 C 200.660156 302.472656 197.976562 297.246094 202.65625 292.304688 C 196.851562 290.011719 199.046875 291.324219 195.304688 292.34375 " fill-opacity="1" fill-rule="nonzero"/><path fill="#ffffff" d="M 201.238281 282.164062 C 200.796875 281.226562 200.207031 279.507812 199.167969 278.894531 C 194.421875 279.761719 191.230469 282.898438 182.777344 280.390625 C 180.914062 280.265625 176.949219 278.269531 174.804688 278.78125 C 171.945312 279.457031 171.273438 283.007812 169.800781 284.207031 C 171.105469 285.039062 172.335938 287.328125 173.769531 288.714844 C 176.664062 291.515625 190.746094 293.449219 197.023438 289.757812 C 198.140625 289.097656 198.960938 288.25 199.554688 287.703125 C 204.746094 282.710938 203.550781 287.0625 201.238281 282.164062 " fill-opacity="1" fill-rule="nonzero"/><path fill="#ffffff" d="M 175.949219 263.703125 C 177.785156 263.269531 180.460938 263.089844 182.371094 262.925781 C 187.199219 261.617188 188.128906 263.460938 192.882812 264.257812 C 194.269531 264.492188 195.695312 264.355469 197.09375 264.53125 C 197.332031 264.558594 198.125 263.695312 198.53125 262.898438 C 199.898438 261.042969 198.847656 257.226562 199.757812 254.511719 C 198.984375 254.75 192.503906 256.207031 189.035156 256.386719 C 184.070312 257.480469 177.933594 254.210938 174.777344 253.914062 C 172.113281 253.660156 173.816406 253.273438 173.535156 255.894531 C 173.417969 256.960938 172.273438 260.777344 175.949219 263.703125 " fill-opacity="1" fill-rule="nonzero"/><path fill="#ffffff" d="M 198.5 266.589844 C 196.214844 265.953125 194.433594 266.78125 190.511719 265.328125 C 187.738281 264.59375 185.796875 263.917969 182.472656 264.390625 C 174.820312 266.214844 174.542969 263.828125 169.800781 270.828125 C 171.960938 272.863281 173.457031 275.496094 179.960938 277.910156 C 182.480469 278.84375 187.941406 281.535156 194.566406 278.851562 C 199.089844 277.015625 199.605469 277.648438 201.359375 274.863281 C 201.949219 273.921875 202.523438 273.046875 203.324219 272.332031 C 201.363281 270.101562 201.25 267.355469 198.5 266.589844 " fill-opacity="1" fill-rule="nonzero"/><path fill="#ffffff" d="M 190.65625 193.34375 C 191.191406 193.949219 190.265625 194.527344 190.171875 193.804688 C 190.082031 193.097656 190.523438 193.078125 190.65625 193.34375 Z M 191.296875 194.125 C 191.296875 194.722656 190.820312 194.558594 190.835938 194.089844 C 190.847656 193.597656 191.546875 193.777344 191.296875 194.125 Z M 191.40625 193.402344 C 191.488281 193.601562 191.273438 193.78125 191.042969 193.542969 C 190.679688 193.148438 191.179688 192.875 191.40625 193.402344 Z M 190.726562 194.503906 C 191.128906 194.5625 191.234375 194.769531 191.503906 194.585938 C 192.125 194.191406 192.273438 192.824219 191.042969 192.652344 C 189.605469 192.449219 189.390625 194.3125 190.726562 194.503906 " fill-opacity="1" fill-rule="nonzero"/><path fill="#ffffff" d="M 200.671875 185.132812 C 200.90625 185.046875 201.289062 183.847656 202.996094 183.511719 C 202.164062 183.042969 202.109375 182.398438 200.117188 181.574219 C 199.390625 181.273438 198.71875 180.84375 198.574219 180.160156 C 196.355469 186.613281 200.304688 185.566406 200.671875 185.132812 " fill-opacity="1" fill-rule="nonzero"/><path fill="#ffffff" d="M 173.8125 178.363281 C 177.652344 180.359375 176.644531 180.667969 177.980469 179.902344 C 169.714844 172.5625 159.207031 169.628906 162.347656 156.640625 C 163.816406 146.964844 170.882812 143.558594 178.132812 140.964844 C 168.132812 141.914062 160.730469 150.539062 160.90625 161.757812 C 161.304688 172.054688 169.171875 175.109375 173.8125 178.363281 " fill-opacity="1" fill-rule="nonzero"/><path fill="#ffffff" d="M 215.394531 156.640625 C 218.535156 169.628906 208.027344 172.5625 199.761719 179.902344 C 201.101562 180.667969 200.09375 180.359375 203.929688 178.363281 C 208.570312 175.109375 216.4375 172.054688 216.839844 161.757812 C 217.015625 150.539062 209.609375 141.914062 199.609375 140.964844 C 206.859375 143.558594 213.925781 146.964844 215.394531 156.640625 " fill-opacity="1" fill-rule="nonzero"/><path fill="#ffffff" d="M 186.417969 192.457031 C 186.519531 192.140625 187.175781 189.910156 187.589844 189.707031 C 186.9375 187.46875 187.230469 179.371094 186.808594 177.257812 C 186.808594 177.257812 186.382812 182.207031 186.265625 183.664062 C 185.386719 194.496094 185.34375 190.886719 186.417969 192.457031 " fill-opacity="1" fill-rule="nonzero"/><path fill="#ffffff" d="M 188.058594 189.746094 C 188.210938 187.015625 190.179688 178.996094 194.085938 173.164062 C 186.015625 182.761719 187.503906 185.46875 188.058594 189.746094 " fill-opacity="1" fill-rule="nonzero"/><path fill="#ffffff" d="M 195.210938 198.113281 C 193.917969 198.761719 191.453125 200.648438 189.628906 199.726562 C 190.65625 202.15625 192.808594 201.738281 193.0625 201.875 C 192.121094 203.105469 189.363281 202.199219 188.265625 196.957031 C 188.101562 194.40625 187.632812 193.15625 187.863281 192.125 C 187.945312 191.769531 187.449219 191.535156 187.261719 191.871094 C 186.832031 192.664062 186.277344 193.402344 185.894531 194.21875 C 185.726562 193.796875 185.535156 193.53125 185.164062 193.382812 C 185.117188 194.109375 185.1875 194.625 184.921875 194.585938 C 185.296875 198.496094 183.109375 202.851562 180.613281 201.5625 C 181.941406 201.363281 183.003906 200.558594 183.601562 198.90625 C 181.195312 198.472656 180.40625 199.445312 177.398438 197.53125 C 175.863281 199.121094 175.449219 200.734375 173.964844 202.707031 C 166.28125 217.390625 164.6875 228.402344 171.015625 242.929688 C 174.742188 251.511719 180.914062 255.453125 190.386719 253.5625 C 196.382812 252.367188 200 252.398438 203.324219 245.34375 C 211.570312 227.753906 201.8125 194.808594 195.210938 198.113281 " fill-opacity="1" fill-rule="nonzero"/><path fill="#ffffff" d="M 196.191406 192.382812 C 195.457031 190.824219 193.9375 192.441406 192.671875 192.949219 C 193.234375 193.808594 192.9375 194.730469 192.164062 195.136719 C 192.042969 195.242188 191.953125 195.183594 192.429688 195.292969 C 193.597656 195.5625 193.753906 194.375 194.640625 194.003906 C 193.550781 195.164062 193.9375 196.230469 192.261719 195.898438 C 190.847656 195.617188 191.304688 195.886719 190.371094 197.679688 C 193.171875 198.109375 193.800781 196.289062 196.175781 195.761719 C 197.574219 196.515625 200.085938 193.046875 200.835938 191.882812 C 200.167969 192.148438 199.230469 192.328125 198.71875 191.839844 C 197.882812 192.578125 197.273438 193.882812 196.109375 194.652344 C 197.433594 191.988281 196.511719 193.5625 198.304688 190.988281 C 199.132812 189.796875 198.59375 189.382812 200.625 187.136719 C 201.601562 186.167969 202.273438 186.128906 200.972656 185.933594 C 200.523438 185.867188 199.996094 186.402344 199.191406 186.316406 C 197.851562 186.171875 197.097656 185.007812 195.484375 185.847656 C 195.101562 186.671875 195.789062 187.460938 195.847656 188.289062 C 195.890625 188.910156 195.691406 189.414062 195.53125 190.007812 C 195.269531 191.007812 195.917969 191.066406 196.328125 191.625 C 196.703125 192.136719 196.300781 192.617188 196.191406 192.382812 " fill-opacity="1" fill-rule="nonzero"/><path fill="#ffffff" d="M 180.230469 195.824219 C 178.847656 194.757812 180.101562 193.550781 178.765625 192.773438 C 177.539062 192.066406 176.097656 192.121094 175.023438 191.394531 C 174.46875 191.027344 174.066406 190.472656 173.558594 190.039062 C 174.144531 191.863281 173.8125 190.316406 176.53125 194.410156 C 177.535156 195.914062 176.820312 195.464844 177.386719 195.65625 C 178.699219 197.058594 180.910156 196.640625 182.269531 196.738281 C 181.648438 195.464844 180.496094 193.902344 180.355469 193.316406 C 180.203125 193.667969 180.085938 194.058594 180.109375 194.445312 C 179.949219 195.316406 180.644531 196.140625 180.230469 195.824219 " fill-opacity="1" fill-rule="nonzero"/><path fill="#ffffff" d="M 181.554688 191.949219 C 181.847656 192.367188 181.476562 192.386719 181.472656 192.707031 C 181.464844 192.964844 181.242188 193.113281 181.011719 192.894531 C 180.457031 192.34375 181.222656 191.476562 181.554688 191.949219 Z M 182.097656 193.042969 C 182.132812 193.34375 181.511719 193.402344 181.617188 192.84375 C 181.679688 192.613281 182.039062 192.558594 182.097656 193.042969 Z M 182.148438 192.023438 C 182.289062 192.046875 182.335938 192.289062 182.097656 192.332031 C 181.847656 192.378906 181.796875 191.96875 182.148438 192.023438 Z M 182.941406 192.546875 C 183.214844 191.140625 181.144531 190.882812 180.601562 192.089844 C 180.011719 193.546875 182.667969 193.945312 182.941406 192.546875 " fill-opacity="1" fill-rule="nonzero"/><path fill="#ffffff" d="M 179.773438 193.097656 C 179.863281 192.863281 179.417969 191.394531 178.621094 191.027344 C 177.328125 190.433594 176.179688 190.859375 174.4375 190.191406 C 176.730469 192.140625 178.683594 191.242188 179.773438 193.097656 " fill-opacity="1" fill-rule="nonzero"/><path fill="#ffffff" d="M 175.960938 181.742188 C 175.960938 182.773438 176.105469 183.792969 175.773438 184.777344 C 175.785156 184.785156 175.796875 184.785156 175.808594 184.789062 C 176.140625 186.035156 176.632812 185.378906 174.550781 185.066406 C 174.722656 186.050781 175.6875 186.675781 176.148438 187.539062 C 176.535156 188.269531 176.324219 189.074219 176.78125 189.796875 C 177.9375 189.851562 178.738281 189.980469 179.570312 190.832031 C 179.222656 188.441406 180.914062 185.855469 179.277344 185.691406 C 180.003906 176.835938 179.636719 182.699219 175.960938 181.742188 " fill-opacity="1" fill-rule="nonzero"/><path fill="#ffffff" d="M 182.453125 194.851562 C 182.882812 195.480469 183.453125 196.210938 183.488281 197 C 183.558594 197.019531 183.625 197.042969 183.691406 197.070312 C 184.191406 194.980469 184.15625 195.207031 183.402344 193.40625 C 182.234375 194.875 181.566406 193.554688 182.453125 194.851562 " fill-opacity="1" fill-rule="nonzero"/><path fill="#ffffff" d="M 184.394531 191.789062 C 184.929688 191.085938 185.21875 191.019531 185.21875 190.195312 C 185.566406 187.621094 185.371094 186.304688 185.171875 183.847656 C 184.125 171.402344 186.839844 166.9375 189.324219 160.671875 C 187.046875 165.277344 183.988281 170.480469 183.714844 177.988281 C 183.707031 178.226562 183.6875 191.863281 183.804688 192.746094 C 183.804688 192.746094 184.117188 192.148438 184.394531 191.789062 " fill-opacity="1" fill-rule="nonzero"/><path fill="#ffffff" d="M 189.25 198.566406 C 189.390625 197.558594 189.832031 195.695312 190.597656 195.027344 C 189.941406 194.726562 190.371094 194.570312 189.726562 194.570312 C 188.496094 195.792969 188.90625 197.117188 189.25 198.566406 " fill-opacity="1" fill-rule="nonzero"/><path fill="#ffffff" d="M 189.25 198.566406 C 189.25 198.574219 189.25 198.578125 189.25 198.578125 C 189.25 198.648438 189.261719 198.597656 189.25 198.566406 " fill-opacity="1" fill-rule="nonzero"/><path fill="#ffffff" d="M 139.289062 142.011719 C 141.921875 143.796875 144.140625 142.519531 144.996094 145.472656 C 145.074219 145.503906 145.097656 145.523438 145.117188 145.550781 C 146.449219 144.761719 148.117188 144.460938 149.613281 144.441406 C 152.511719 144.398438 152.226562 145.089844 152.3125 144.386719 C 153.898438 141.457031 151.71875 137.675781 151.203125 135.933594 C 150.941406 135.046875 149.367188 120.210938 141.980469 117.546875 C 136.242188 116.789062 144.046875 125.3125 141.125 136.71875 C 140.765625 138.128906 140.441406 140.714844 139.289062 142.011719 " fill-opacity="1" fill-rule="nonzero"/><g clip-path="url(#701726d54b)"><path fill="#ffffff" d="M 130.9375 183.660156 C 140.542969 183.785156 140.476562 178.71875 142.703125 176.765625 C 145.078125 174.683594 148.101562 175.773438 149.097656 175.378906 C 152.136719 175.484375 155.5 174.179688 156.964844 171.398438 C 157.890625 169.636719 157.257812 167.832031 156.585938 166.109375 C 155.0625 162.207031 157.492188 161.605469 154.703125 151.28125 C 154.148438 149.214844 153.160156 148.308594 151.796875 147.519531 C 147.425781 143.402344 142.964844 149.300781 140.707031 149.636719 C 139.007812 149.890625 135.691406 149.089844 135.851562 146.828125 C 135.855469 146.71875 136.003906 146.625 136.089844 146.726562 C 137.820312 148.734375 141 149.28125 143.675781 147.25 C 143.453125 144.339844 141.363281 146.226562 139.402344 144.75 C 136.175781 142.316406 136.484375 144.101562 134.285156 142.335938 C 128.175781 137.417969 128.195312 132.925781 127.546875 124.910156 C 127.335938 122.328125 125.855469 121.003906 127.410156 117.992188 C 128.167969 116.523438 129.335938 115.183594 129.839844 113.597656 C 130.378906 111.90625 130.59375 109.246094 128.203125 109.386719 C 125.109375 109.570312 121.683594 113.160156 118.863281 115.734375 C 108.339844 125.359375 105.164062 135.085938 105.59375 149.109375 C 105.796875 155.644531 106.890625 161.972656 110.269531 167.660156 C 114.425781 174.660156 122.863281 183.554688 130.9375 183.660156 " fill-opacity="1" fill-rule="nonzero"/></g><path fill="#ffffff" d="M 229.191406 209.886719 C 227.03125 210.085938 217.3125 213.253906 209.230469 213.480469 C 208.289062 213.503906 208.835938 213 209.554688 217.386719 C 211.839844 217.058594 230.738281 217.742188 230.738281 217.742188 C 231.960938 217.476562 230.558594 215.480469 230.636719 213.273438 C 229.992188 211.128906 231.199219 210.046875 229.191406 209.886719 " fill-opacity="1" fill-rule="nonzero"/><path fill="#ffffff" d="M 245.558594 259.453125 C 241.636719 249.671875 230.785156 244.46875 230.46875 244.386719 C 229.066406 245.113281 228.671875 244.898438 228.277344 247.207031 C 229.464844 247.5625 233.304688 250.585938 235.238281 255.277344 C 237.601562 261.019531 238.972656 259.21875 242.164062 259.75 C 245.640625 260.328125 247.484375 264.242188 245.558594 259.453125 " fill-opacity="1" fill-rule="nonzero"/><path fill="#ffffff" d="M 230.808594 283.535156 C 229.40625 284.347656 229.648438 284.03125 229.492188 284.625 C 229.375 287.316406 228.886719 286.636719 229.984375 290.632812 C 230.046875 290.859375 230.027344 290.859375 230.15625 290.046875 C 230.652344 286.925781 231.832031 286.386719 231.613281 284.890625 C 231.511719 284.183594 230.960938 283.773438 230.808594 283.535156 " fill-opacity="1" fill-rule="nonzero"/><path fill="#ffffff" d="M 223.570312 247.875 C 224.054688 248.375 224.742188 249.203125 225.457031 249.34375 C 228.6875 246.578125 225.445312 245.25 229.148438 243.675781 C 229.671875 243.453125 230.820312 242.859375 230.386719 242.496094 C 228.082031 240.535156 226.777344 242.253906 219.9375 240.035156 C 211.953125 237.445312 212.957031 237.308594 208.617188 238.460938 C 208.445312 239.007812 208.257812 239.546875 208.058594 240.082031 C 211.746094 240.019531 215.121094 243.144531 217.082031 243.953125 C 220.824219 245.492188 220.761719 244.988281 223.570312 247.875 " fill-opacity="1" fill-rule="nonzero"/><path fill="#ffffff" d="M 212.402344 262.910156 C 212.585938 263.980469 212.699219 266.15625 214.65625 269.601562 C 217.808594 274.152344 216.332031 270.886719 218.144531 269.699219 C 215.960938 262.652344 214.964844 263.292969 213.90625 260.84375 C 213.300781 261.382812 212.84375 262.164062 212.402344 262.910156 " fill-opacity="1" fill-rule="nonzero"/><path fill="#ffffff" d="M 211.074219 262.957031 C 211.421875 261.796875 213.773438 258.390625 215.398438 259.019531 C 214.820312 257.597656 213.222656 257.070312 212.269531 255.886719 C 210.617188 253.835938 208.964844 249.035156 208.097656 248.011719 C 207.328125 247.105469 206.34375 246.40625 205.570312 245.503906 C 204.453125 247.71875 204.195312 245.957031 208.183594 254.128906 C 210.195312 258.246094 209.777344 260.695312 211.074219 262.957031 " fill-opacity="1" fill-rule="nonzero"/><path fill="#ffffff" d="M 242.996094 122.574219 C 243.144531 123.574219 244.480469 123.710938 245.429688 123.621094 C 245.199219 123.359375 245.398438 122.835938 246.125 123.410156 C 246.445312 120.097656 248.230469 120.960938 245.015625 115.722656 C 244.53125 114.945312 243.863281 117.195312 243.4375 117.53125 C 243.097656 117.804688 241 117.902344 242.242188 120.242188 C 242.859375 121.402344 242.667969 120.332031 242.996094 122.574219 " fill-opacity="1" fill-rule="nonzero"/><path fill="#ffffff" d="M 244.3125 124.34375 C 244.046875 124.890625 243.707031 125.21875 243.542969 125.804688 C 243.253906 126.835938 243.363281 127.828125 242.945312 128.804688 C 243.0625 128.878906 243.1875 128.949219 243.308594 129.015625 C 243.765625 128.511719 244.304688 128.222656 244.667969 127.644531 C 244.980469 127.132812 245.199219 125.820312 246.035156 126.171875 C 246.488281 123.117188 247.023438 125.320312 244.3125 124.34375 " fill-opacity="1" fill-rule="nonzero"/><path fill="#ffffff" d="M 245.742188 130.308594 C 246.167969 124.636719 245.507812 127.730469 245.210938 128.25 C 244.765625 129.023438 243.574219 129.46875 243.476562 130.402344 C 243.386719 131.195312 244.652344 131.414062 245.148438 131.8125 C 245.488281 132.089844 245.554688 132.800781 245.742188 130.308594 " fill-opacity="1" fill-rule="nonzero"/><path fill="#ffffff" d="M 243.207031 132.945312 C 243.617188 133.089844 243.84375 133.5 244.191406 133.746094 C 244.589844 134.027344 244.863281 133.5625 244.769531 133.203125 C 244.503906 132.191406 243.578125 132.535156 243.207031 132.945312 " fill-opacity="1" fill-rule="nonzero"/><path fill="#ffffff" d="M 241.375 138.265625 C 243.171875 139.359375 245.917969 132.941406 243.648438 135.105469 C 242.914062 135.808594 242.398438 137.09375 241.582031 137.34375 C 241.1875 138.097656 241.136719 138.125 241.375 138.265625 " fill-opacity="1" fill-rule="nonzero"/><path fill="#ffffff" d="M 209.972656 226.742188 C 209.976562 228.195312 209.917969 229.644531 209.792969 231.0625 C 213.425781 231.332031 214.113281 232.429688 214.867188 232.71875 C 216.757812 230.3125 215.457031 229.167969 216.371094 227.523438 C 216.808594 226.738281 217.351562 226.878906 214.328125 226.59375 C 212.109375 226.382812 211.253906 226.84375 209.972656 226.742188 " fill-opacity="1" fill-rule="nonzero"/><path fill="#ffffff" d="M 234.679688 233.363281 C 235.488281 233.300781 237.664062 233.0625 238.136719 232.402344 C 236.085938 229.308594 236.628906 229.050781 235.765625 225.988281 C 232.910156 224.695312 220.816406 227.625 217.703125 227.503906 C 216.6875 228.550781 217.175781 230.207031 216.679688 231.539062 C 218.890625 230.527344 228.480469 233.8125 234.679688 233.363281 " fill-opacity="1" fill-rule="nonzero"/><path fill="#ffffff" d="M 252.699219 217.070312 C 253.230469 217.578125 253.734375 217.933594 254.394531 218.253906 C 254.445312 218.277344 254.476562 218.316406 254.484375 218.359375 C 254.996094 218.582031 254.707031 218.492188 254.914062 218.457031 C 256.226562 215.15625 257.5 212.785156 256.601562 208.820312 C 256.171875 210.480469 255.300781 212.039062 254.460938 213.515625 C 252.265625 217.394531 252.285156 216.671875 252.699219 217.070312 " fill-opacity="1" fill-rule="nonzero"/><path fill="#ffffff" d="M 265.425781 206.179688 C 264.71875 209.691406 260.273438 218.691406 256.292969 220.324219 C 256.855469 221.046875 257.175781 221.285156 257.519531 221.6875 C 258.921875 221.0625 260.277344 220.550781 261.417969 219.4375 C 266.542969 214.445312 265.59375 205.742188 265.425781 206.179688 " fill-opacity="1" fill-rule="nonzero"/><path fill="#ffffff" d="M 232.835938 183.753906 C 232.128906 183.785156 230.753906 181.359375 230.210938 179.679688 C 229.679688 178.054688 226.484375 178.085938 223.988281 177.902344 C 222.421875 178.796875 223.296875 180.351562 220.964844 181.847656 C 220.175781 182.351562 219.023438 183.410156 218.039062 183.675781 C 216.878906 183.992188 215.765625 183.332031 214.574219 183.617188 C 213.484375 183.878906 211.960938 185.214844 211.878906 186.390625 C 211.457031 192.355469 213.949219 189.4375 217.21875 192.402344 C 218.113281 193.21875 218.304688 192.484375 219.964844 191.742188 C 224.242188 189.816406 232.890625 195.398438 235.578125 190.074219 C 235.585938 189.160156 235.660156 189.175781 234.722656 187.621094 C 232.597656 184.101562 235.007812 184.957031 232.835938 183.753906 " fill-opacity="1" fill-rule="nonzero"/><path fill="#ffffff" d="M 254.34375 219.382812 C 253.953125 219.144531 253.601562 219.277344 252.242188 218.359375 C 250.980469 217.507812 251.042969 216.933594 250.535156 217.171875 C 249.894531 217.480469 249.90625 217.9375 248.855469 219.132812 C 246.757812 221.53125 245.203125 223.089844 242.460938 224.75 C 237.324219 227.851562 237.925781 226.574219 238.011719 227.761719 C 238.113281 229.230469 238.660156 229.351562 239.316406 230.695312 C 244.257812 229.164062 247.515625 226.257812 252.433594 224.492188 C 253.878906 223.972656 255.484375 223.988281 256.804688 223.171875 C 256.515625 222.164062 254.175781 220.835938 254.34375 219.382812 " fill-opacity="1" fill-rule="nonzero"/><path fill="#ffffff" d="M 220.09375 194.019531 C 218.09375 195.542969 216.75 192.660156 215.027344 192.1875 C 213.128906 191.660156 211.027344 189.433594 209.972656 190.78125 C 207.378906 194.101562 206.726562 192.929688 203.847656 195.9375 C 202.46875 196.925781 201.996094 197.777344 201.15625 198.171875 C 202.253906 200.210938 203.355469 201.527344 204.558594 203.53125 C 206.335938 202.351562 208.875 201.65625 210.46875 200.847656 C 212.246094 199.945312 213.382812 198.539062 214.457031 198.039062 C 216.996094 195.660156 220.992188 196.953125 221.886719 197.066406 C 225.640625 197.535156 224.199219 194.3125 225.46875 192.488281 C 223.339844 192.238281 221.789062 192.726562 220.09375 194.019531 " fill-opacity="1" fill-rule="nonzero"/><path fill="#ffffff" d="M 249.746094 196.035156 C 249.71875 196.023438 249.6875 196.015625 249.664062 196.007812 C 249.660156 195.980469 249.71875 196.019531 249.746094 196.035156 Z M 244.066406 202.402344 C 244.953125 202.773438 246.34375 203.308594 247.433594 204.4375 C 249.792969 202.167969 249.058594 201.382812 252.753906 198.386719 C 251.207031 197.078125 251.589844 196.128906 250.613281 195.625 C 248.929688 194.757812 249.46875 195.832031 249.554688 190.445312 C 246.910156 197.332031 246.089844 200.589844 244.066406 202.402344 " fill-opacity="1" fill-rule="nonzero"/><path fill="#ffffff" d="M 239.332031 205.253906 C 237.210938 207.382812 238.457031 207.90625 233.886719 210.382812 C 233.425781 210.632812 232.878906 210.976562 232.34375 211.023438 C 232.492188 212.289062 232.199219 213.578125 232.589844 214.839844 C 233.714844 214.640625 238.921875 213.507812 241.832031 211.933594 C 243.09375 211.253906 246.542969 208.4375 247.214844 207.585938 C 248.269531 206.253906 246.675781 205.640625 242.328125 203.871094 C 241.277344 203.714844 240.070312 204.515625 239.332031 205.253906 " fill-opacity="1" fill-rule="nonzero"/><path fill="#ffffff" d="M 252.492188 192.988281 C 252.226562 193.90625 252.183594 195.074219 251.664062 195.917969 C 251.722656 195.902344 251.789062 195.921875 251.84375 195.988281 C 252.191406 196.445312 252.585938 196.824219 253.007812 197.179688 C 253.234375 194.285156 259.773438 197.460938 254.496094 185.570312 C 254.5625 190.371094 253.304688 190.207031 252.492188 192.988281 " fill-opacity="1" fill-rule="nonzero"/><path fill="#ffffff" d="M 225.429688 144.441406 C 226.929688 144.460938 228.601562 144.761719 229.925781 145.550781 C 229.949219 145.523438 229.96875 145.503906 230.050781 145.472656 C 230.90625 142.519531 233.125 143.796875 235.753906 142.011719 C 234.605469 140.714844 234.277344 138.128906 233.917969 136.71875 C 230.996094 125.3125 238.804688 116.789062 233.0625 117.546875 C 225.679688 120.210938 224.101562 135.046875 223.839844 135.933594 C 223.328125 137.675781 221.144531 141.457031 222.734375 144.386719 C 222.820312 145.089844 222.53125 144.398438 225.429688 144.441406 " fill-opacity="1" fill-rule="nonzero"/><g clip-path="url(#d2c995c3b5)"><path fill="#ffffff" d="M 256.183594 115.734375 C 253.363281 113.160156 249.9375 109.570312 246.84375 109.386719 C 244.449219 109.246094 244.667969 111.90625 245.203125 113.597656 C 245.710938 115.183594 246.875 116.523438 247.632812 117.992188 C 249.1875 121.003906 247.710938 122.328125 247.5 124.910156 C 246.847656 132.925781 246.871094 137.417969 240.757812 142.335938 C 238.5625 144.101562 238.871094 142.316406 235.644531 144.75 C 233.683594 146.226562 231.589844 144.339844 231.367188 147.25 C 234.046875 149.28125 237.226562 148.734375 238.953125 146.726562 C 239.039062 146.625 239.1875 146.71875 239.195312 146.828125 C 239.355469 149.089844 236.039062 149.890625 234.339844 149.636719 C 232.082031 149.300781 227.621094 143.402344 223.25 147.519531 C 221.886719 148.308594 220.898438 149.214844 220.339844 151.28125 C 217.550781 161.605469 219.984375 162.207031 218.460938 166.109375 C 217.785156 167.832031 217.15625 169.636719 218.082031 171.398438 C 219.546875 174.179688 222.910156 175.484375 225.945312 175.378906 C 226.945312 175.773438 229.96875 174.683594 232.34375 176.765625 C 234.570312 178.71875 234.503906 183.785156 244.109375 183.660156 C 252.179688 183.554688 260.621094 174.660156 264.777344 167.660156 C 268.15625 161.972656 269.246094 155.644531 269.449219 149.109375 C 269.882812 135.085938 266.703125 125.359375 256.183594 115.734375 " fill-opacity="1" fill-rule="nonzero"/></g><g fill="#ffffff" fill-opacity="1"><g transform="translate(93.704432, 104.753295)"><g><path d="M -4.09375 -8.515625 L -12.109375 -17.75 C -14.210938 -20.1875 -15.109375 -22.535156 -14.796875 -24.796875 C -14.484375 -27.066406 -13.28125 -29.109375 -11.1875 -30.921875 C -9.03125 -32.804688 -6.828125 -33.785156 -4.578125 -33.859375 C -2.328125 -33.929688 -0.46875 -33.125 1 -31.4375 C 1.582031 -30.757812 1.847656 -30.1875 1.796875 -29.71875 C 1.753906 -29.257812 1.425781 -28.765625 0.8125 -28.234375 C -0.289062 -27.273438 -1.164062 -27.160156 -1.8125 -27.890625 C -3.90625 -30.035156 -6.125 -30.09375 -8.46875 -28.0625 C -11 -25.863281 -11.085938 -23.398438 -8.734375 -20.671875 L -0.71875 -11.4375 C 1.644531 -8.707031 4.113281 -8.457031 6.6875 -10.6875 C 7.445312 -11.34375 7.984375 -12 8.296875 -12.65625 C 8.609375 -13.320312 8.691406 -13.960938 8.546875 -14.578125 C 8.410156 -15.203125 8.242188 -15.707031 8.046875 -16.09375 C 7.859375 -16.476562 7.585938 -16.925781 7.234375 -17.4375 C 6.660156 -18.226562 6.890625 -19.070312 7.921875 -19.96875 C 8.535156 -20.5 9.078125 -20.757812 9.546875 -20.75 C 10.023438 -20.75 10.554688 -20.410156 11.140625 -19.734375 C 12.671875 -17.972656 13.242188 -15.960938 12.859375 -13.703125 C 12.472656 -11.453125 11.203125 -9.390625 9.046875 -7.515625 C 6.953125 -5.703125 4.765625 -4.804688 2.484375 -4.828125 C 0.210938 -4.847656 -1.976562 -6.078125 -4.09375 -8.515625 Z M -4.09375 -8.515625 "/></g></g></g><g fill="#ffffff" fill-opacity="1"><g transform="translate(109.507203, 91.224895)"><g><path d="M 1.125 -2.5 L -8.25 -16.703125 C -8.476562 -17.054688 -8.492188 -17.453125 -8.296875 -17.890625 C -8.109375 -18.335938 -7.757812 -18.726562 -7.25 -19.0625 C -6.78125 -19.375 -6.304688 -19.523438 -5.828125 -19.515625 C -5.359375 -19.515625 -5.007812 -19.335938 -4.78125 -18.984375 L -3.75 -17.4375 C -3.894531 -18.519531 -3.753906 -19.613281 -3.328125 -20.71875 C -2.910156 -21.820312 -2.222656 -22.691406 -1.265625 -23.328125 L -0.140625 -24.0625 C 0.234375 -24.3125 0.664062 -24.367188 1.15625 -24.234375 C 1.644531 -24.109375 2.035156 -23.820312 2.328125 -23.375 C 2.617188 -22.9375 2.734375 -22.457031 2.671875 -21.9375 C 2.609375 -21.425781 2.390625 -21.046875 2.015625 -20.796875 L 0.890625 -20.0625 C -0.234375 -19.320312 -0.90625 -18.191406 -1.125 -16.671875 C -1.34375 -15.148438 -0.945312 -13.628906 0.0625 -12.109375 L 4.796875 -4.921875 C 4.992188 -4.617188 4.988281 -4.21875 4.78125 -3.71875 C 4.582031 -3.21875 4.226562 -2.796875 3.71875 -2.453125 C 3.207031 -2.117188 2.695312 -1.96875 2.1875 -2 C 1.675781 -2.03125 1.320312 -2.195312 1.125 -2.5 Z M 1.125 -2.5 "/></g></g></g><g fill="#ffffff" fill-opacity="1"><g transform="translate(120.558027, 83.657801)"><g><path d="M -1.390625 -5.125 C -2.398438 -7.125 -2.347656 -8.894531 -1.234375 -10.4375 C -0.128906 -11.988281 1.84375 -13.476562 4.6875 -14.90625 L 6.34375 -15.734375 L 6.015625 -16.40625 C 5.460938 -17.5 4.679688 -18.289062 3.671875 -18.78125 C 2.660156 -19.28125 1.523438 -19.21875 0.265625 -18.59375 C -0.804688 -18.050781 -1.65625 -17.390625 -2.28125 -16.609375 C -2.90625 -15.835938 -3.257812 -15.429688 -3.34375 -15.390625 C -3.769531 -15.171875 -4.21875 -15.195312 -4.6875 -15.46875 C -5.15625 -15.75 -5.515625 -16.140625 -5.765625 -16.640625 C -6.085938 -17.296875 -5.757812 -18.164062 -4.78125 -19.25 C -3.800781 -20.332031 -2.640625 -21.210938 -1.296875 -21.890625 C 1.285156 -23.179688 3.546875 -23.445312 5.484375 -22.6875 C 7.421875 -21.925781 8.90625 -20.503906 9.9375 -18.421875 L 14.671875 -9 C 14.847656 -8.644531 14.816406 -8.242188 14.578125 -7.796875 C 14.347656 -7.359375 13.957031 -7 13.40625 -6.71875 C 12.90625 -6.46875 12.414062 -6.382812 11.9375 -6.46875 C 11.457031 -6.550781 11.128906 -6.769531 10.953125 -7.125 L 10.296875 -8.4375 C 9.585938 -5.632812 8.1875 -3.707031 6.09375 -2.65625 C 4.632812 -1.9375 3.222656 -1.765625 1.859375 -2.140625 C 0.492188 -2.523438 -0.585938 -3.519531 -1.390625 -5.125 Z M 2.34375 -7.609375 C 2.75 -6.804688 3.273438 -6.3125 3.921875 -6.125 C 4.578125 -5.9375 5.269531 -6.023438 6 -6.390625 C 6.945312 -6.867188 7.648438 -7.722656 8.109375 -8.953125 C 8.578125 -10.191406 8.585938 -11.257812 8.140625 -12.15625 L 7.4375 -13.546875 L 6.5 -13.078125 C 5.375 -12.503906 4.476562 -11.988281 3.8125 -11.53125 C 3.15625 -11.082031 2.648438 -10.503906 2.296875 -9.796875 C 1.953125 -9.085938 1.96875 -8.359375 2.34375 -7.609375 Z M 2.34375 -7.609375 "/></g></g></g><g fill="#ffffff" fill-opacity="1"><g transform="translate(136.044223, 75.755373)"><g><path d="M 5.421875 8.125 C 4.128906 8.570312 3.273438 8.195312 2.859375 7 C 2.453125 5.8125 2.628906 5.085938 3.390625 4.828125 C 4.585938 4.410156 5.570312 3.4375 6.34375 1.90625 C 7.113281 0.375 7.273438 -1.472656 6.828125 -3.640625 L -5.140625 -16.75 C -5.285156 -16.84375 -5.398438 -17.015625 -5.484375 -17.265625 C -5.660156 -17.765625 -5.515625 -18.320312 -5.046875 -18.9375 C -4.578125 -19.5625 -4.046875 -19.976562 -3.453125 -20.1875 C -2.773438 -20.414062 -2.257812 -20.304688 -1.90625 -19.859375 L 7.53125 -8.671875 L 7.375 -23.0625 C 7.445312 -23.65625 7.757812 -24.046875 8.3125 -24.234375 C 8.863281 -24.421875 9.535156 -24.421875 10.328125 -24.234375 C 11.117188 -24.046875 11.613281 -23.671875 11.8125 -23.109375 C 11.882812 -22.867188 11.910156 -22.707031 11.890625 -22.625 L 11.359375 -5.0625 L 11.296875 -3.046875 C 11.265625 -2.617188 11.21875 -1.960938 11.15625 -1.078125 C 11.09375 -0.191406 11.007812 0.484375 10.90625 0.953125 L 10.453125 2.75 C 10.265625 3.5 10.019531 4.09375 9.71875 4.53125 C 9.425781 4.96875 9.085938 5.4375 8.703125 5.9375 C 8.316406 6.445312 7.84375 6.878906 7.28125 7.234375 C 6.726562 7.597656 6.109375 7.894531 5.421875 8.125 Z M 5.421875 8.125 "/></g></g></g><g fill="#ffffff" fill-opacity="1"><g transform="translate(152.919853, 70.144532)"><g/></g></g><g fill="#ffffff" fill-opacity="1"><g transform="translate(159.559591, 68.135371)"><g><path d="M 2.53125 -1.828125 L -1.1875 -29.34375 C -1.25 -29.789062 -1.097656 -30.171875 -0.734375 -30.484375 C -0.378906 -30.796875 0.0546875 -30.988281 0.578125 -31.0625 L 15.1875 -33.03125 C 15.65625 -33.101562 16.035156 -32.96875 16.328125 -32.625 C 16.617188 -32.28125 16.800781 -31.84375 16.875 -31.3125 C 16.945312 -30.769531 16.878906 -30.28125 16.671875 -29.84375 C 16.472656 -29.414062 16.15625 -29.171875 15.71875 -29.109375 L 3.5625 -27.46875 L 4.859375 -17.953125 L 11.3125 -18.828125 C 11.757812 -18.890625 12.128906 -18.765625 12.421875 -18.453125 C 12.710938 -18.140625 12.890625 -17.726562 12.953125 -17.21875 C 13.015625 -16.769531 12.953125 -16.359375 12.765625 -15.984375 C 12.585938 -15.609375 12.257812 -15.390625 11.78125 -15.328125 L 5.328125 -14.453125 L 6.953125 -2.421875 C 7.023438 -1.953125 6.863281 -1.5625 6.46875 -1.25 C 6.070312 -0.945312 5.566406 -0.753906 4.953125 -0.671875 C 4.367188 -0.585938 3.835938 -0.640625 3.359375 -0.828125 C 2.878906 -1.023438 2.601562 -1.359375 2.53125 -1.828125 Z M 2.53125 -1.828125 "/></g></g></g><g fill="#ffffff" fill-opacity="1"><g transform="translate(178.957696, 65.742213)"><g><path d="M 1.09375 -27.265625 C 1.082031 -27.910156 1.316406 -28.460938 1.796875 -28.921875 C 2.285156 -29.390625 2.878906 -29.632812 3.578125 -29.65625 C 4.285156 -29.675781 4.898438 -29.46875 5.421875 -29.03125 C 5.941406 -28.601562 6.207031 -28.066406 6.21875 -27.421875 C 6.238281 -26.804688 6.003906 -26.257812 5.515625 -25.78125 C 5.023438 -25.300781 4.425781 -25.050781 3.71875 -25.03125 C 3.019531 -25.007812 2.410156 -25.222656 1.890625 -25.671875 C 1.378906 -26.117188 1.113281 -26.648438 1.09375 -27.265625 Z M 2.265625 -1.546875 L 1.75 -18.546875 C 1.726562 -18.960938 1.914062 -19.304688 2.3125 -19.578125 C 2.71875 -19.859375 3.238281 -20.007812 3.875 -20.03125 C 4.519531 -20.050781 5.054688 -19.929688 5.484375 -19.671875 C 5.910156 -19.421875 6.132812 -19.085938 6.15625 -18.671875 L 6.671875 -1.671875 C 6.679688 -1.304688 6.472656 -0.960938 6.046875 -0.640625 C 5.628906 -0.328125 5.109375 -0.160156 4.484375 -0.140625 C 3.867188 -0.117188 3.347656 -0.253906 2.921875 -0.546875 C 2.492188 -0.847656 2.273438 -1.179688 2.265625 -1.546875 Z M 2.265625 -1.546875 "/></g></g></g><g fill="#ffffff" fill-opacity="1"><g transform="translate(186.666993, 65.267677)"><g><path d="M 1.3125 -2.96875 C 1.34375 -3.382812 1.515625 -3.800781 1.828125 -4.21875 C 2.148438 -4.644531 2.519531 -4.847656 2.9375 -4.828125 C 3.195312 -4.816406 3.539062 -4.632812 3.96875 -4.28125 C 4.394531 -3.9375 4.972656 -3.582031 5.703125 -3.21875 C 6.441406 -2.851562 7.34375 -2.640625 8.40625 -2.578125 C 10.78125 -2.429688 12.007812 -3.109375 12.09375 -4.609375 C 12.144531 -5.421875 11.832031 -6.078125 11.15625 -6.578125 C 10.488281 -7.085938 9.664062 -7.503906 8.6875 -7.828125 C 7.707031 -8.160156 6.738281 -8.523438 5.78125 -8.921875 C 4.832031 -9.316406 4.03125 -9.941406 3.375 -10.796875 C 2.726562 -11.648438 2.441406 -12.710938 2.515625 -13.984375 C 2.617188 -15.640625 3.285156 -17.023438 4.515625 -18.140625 C 5.753906 -19.253906 7.59375 -19.742188 10.03125 -19.609375 C 11.625 -19.515625 13.054688 -19.179688 14.328125 -18.609375 C 15.597656 -18.046875 16.210938 -17.429688 16.171875 -16.765625 C 16.148438 -16.367188 15.960938 -15.921875 15.609375 -15.421875 C 15.265625 -14.921875 14.851562 -14.6875 14.375 -14.71875 C 14.21875 -14.726562 13.660156 -14.960938 12.703125 -15.421875 C 11.742188 -15.890625 10.816406 -16.148438 9.921875 -16.203125 C 8.796875 -16.273438 7.929688 -16.070312 7.328125 -15.59375 C 6.734375 -15.125 6.414062 -14.582031 6.375 -13.96875 C 6.332031 -13.300781 6.648438 -12.75 7.328125 -12.3125 C 8.003906 -11.882812 8.835938 -11.515625 9.828125 -11.203125 C 10.828125 -10.890625 11.8125 -10.519531 12.78125 -10.09375 C 13.75 -9.675781 14.554688 -9 15.203125 -8.0625 C 15.847656 -7.132812 16.128906 -5.96875 16.046875 -4.5625 C 15.929688 -2.75 15.203125 -1.359375 13.859375 -0.390625 C 12.523438 0.566406 10.679688 0.976562 8.328125 0.84375 C 6.335938 0.71875 4.660156 0.265625 3.296875 -0.515625 C 1.929688 -1.304688 1.269531 -2.125 1.3125 -2.96875 Z M 1.3125 -2.96875 "/></g></g></g><g fill="#ffffff" fill-opacity="1"><g transform="translate(201.699568, 65.871833)"><g><path d="M 2.59375 -0.984375 L 8.09375 -29.3125 C 8.175781 -29.726562 8.441406 -30.023438 8.890625 -30.203125 C 9.335938 -30.390625 9.878906 -30.425781 10.515625 -30.3125 C 11.117188 -30.1875 11.609375 -29.953125 11.984375 -29.609375 C 12.359375 -29.265625 12.503906 -28.882812 12.421875 -28.46875 L 9.875 -15.359375 C 10.488281 -16.148438 11.3125 -16.757812 12.34375 -17.1875 C 13.382812 -17.613281 14.523438 -17.707031 15.765625 -17.46875 C 17.710938 -17.082031 19.238281 -15.953125 20.34375 -14.078125 C 21.457031 -12.210938 21.796875 -10.171875 21.359375 -7.953125 L 19.375 2.28125 C 19.289062 2.71875 19.003906 3.019531 18.515625 3.1875 C 18.023438 3.363281 17.488281 3.394531 16.90625 3.28125 C 16.351562 3.175781 15.878906 2.953125 15.484375 2.609375 C 15.097656 2.265625 14.945312 1.875 15.03125 1.4375 L 17.015625 -8.796875 C 17.234375 -9.890625 17.015625 -10.957031 16.359375 -12 C 15.710938 -13.039062 14.828125 -13.671875 13.703125 -13.890625 C 12.660156 -14.097656 11.660156 -13.882812 10.703125 -13.25 C 9.753906 -12.625 9.15625 -11.664062 8.90625 -10.375 L 6.921875 -0.140625 C 6.847656 0.210938 6.5625 0.492188 6.0625 0.703125 C 5.570312 0.921875 5.035156 0.972656 4.453125 0.859375 C 3.847656 0.742188 3.367188 0.492188 3.015625 0.109375 C 2.660156 -0.265625 2.519531 -0.628906 2.59375 -0.984375 Z M 2.59375 -0.984375 "/></g></g></g><g fill="#ffffff" fill-opacity="1"><g transform="translate(221.333282, 69.957493)"><g/></g></g><g fill="#ffffff" fill-opacity="1"><g transform="translate(227.955195, 71.37641)"><g><path d="M 3.125 -0.234375 L 14.21875 -25.734375 C 14.40625 -26.171875 14.742188 -26.410156 15.234375 -26.453125 C 15.734375 -26.503906 16.265625 -26.40625 16.828125 -26.15625 C 17.398438 -25.914062 17.835938 -25.597656 18.140625 -25.203125 C 18.441406 -24.816406 18.5 -24.40625 18.3125 -23.96875 L 13.6875 -13.34375 L 23.28125 -9.15625 L 27.90625 -19.78125 C 28.09375 -20.21875 28.429688 -20.457031 28.921875 -20.5 C 29.410156 -20.550781 29.9375 -20.453125 30.5 -20.203125 C 31.0625 -19.960938 31.492188 -19.644531 31.796875 -19.25 C 32.109375 -18.863281 32.171875 -18.453125 31.984375 -18.015625 L 20.890625 7.484375 C 20.703125 7.890625 20.351562 8.128906 19.84375 8.203125 C 19.34375 8.273438 18.8125 8.1875 18.25 7.9375 C 17.71875 7.707031 17.296875 7.378906 16.984375 6.953125 C 16.679688 6.535156 16.625 6.125 16.8125 5.71875 L 21.875 -5.921875 L 12.28125 -10.109375 L 7.21875 1.53125 C 7.03125 1.9375 6.6875 2.175781 6.1875 2.25 C 5.6875 2.320312 5.148438 2.238281 4.578125 2 C 4.035156 1.757812 3.609375 1.425781 3.296875 1 C 2.992188 0.582031 2.9375 0.171875 3.125 -0.234375 Z M 3.125 -0.234375 "/></g></g></g><g fill="#ffffff" fill-opacity="1"><g transform="translate(248.678572, 80.334439)"><g><path d="M 6.09375 -5.515625 L 11.765625 -14.359375 C 11.972656 -14.691406 12.347656 -14.859375 12.890625 -14.859375 C 13.429688 -14.859375 13.945312 -14.695312 14.4375 -14.375 C 14.9375 -14.0625 15.285156 -13.664062 15.484375 -13.1875 C 15.691406 -12.707031 15.691406 -12.300781 15.484375 -11.96875 L 9.8125 -3.125 C 9.207031 -2.1875 9.015625 -1.113281 9.234375 0.09375 C 9.460938 1.3125 10.066406 2.234375 11.046875 2.859375 C 12.023438 3.492188 13.109375 3.664062 14.296875 3.375 C 15.484375 3.082031 16.390625 2.457031 17.015625 1.5 L 22.703125 -7.375 C 22.910156 -7.695312 23.273438 -7.859375 23.796875 -7.859375 C 24.316406 -7.867188 24.832031 -7.707031 25.34375 -7.375 C 25.863281 -7.039062 26.21875 -6.644531 26.40625 -6.1875 C 26.59375 -5.726562 26.582031 -5.335938 26.375 -5.015625 L 20.6875 3.859375 C 19.488281 5.710938 17.722656 6.875 15.390625 7.34375 C 13.054688 7.820312 10.898438 7.425781 8.921875 6.15625 C 6.953125 4.882812 5.6875 3.082031 5.125 0.75 C 4.570312 -1.570312 4.894531 -3.660156 6.09375 -5.515625 Z M 6.09375 -5.515625 "/></g></g></g><g fill="#ffffff" fill-opacity="1"><g transform="translate(265.149161, 90.74457)"><g><path d="M 2.75 0.4375 L 21.765625 -21.265625 C 22.035156 -21.578125 22.398438 -21.703125 22.859375 -21.640625 C 23.328125 -21.585938 23.800781 -21.347656 24.28125 -20.921875 C 24.769531 -20.503906 25.09375 -20.050781 25.25 -19.5625 C 25.40625 -19.070312 25.347656 -18.671875 25.078125 -18.359375 L 16.265625 -8.3125 C 17.210938 -8.675781 18.242188 -8.773438 19.359375 -8.609375 C 20.484375 -8.453125 21.515625 -7.960938 22.453125 -7.140625 C 24.003906 -5.785156 24.796875 -4.007812 24.828125 -1.8125 C 24.867188 0.382812 24.144531 2.332031 22.65625 4.03125 L 20.109375 6.953125 C 18.671875 8.585938 16.832031 9.554688 14.59375 9.859375 C 12.363281 10.160156 10.515625 9.664062 9.046875 8.375 C 8.097656 7.539062 7.429688 6.523438 7.046875 5.328125 C 6.671875 4.140625 6.601562 3.0625 6.84375 2.09375 L 5.875 3.1875 C 5.632812 3.46875 5.257812 3.585938 4.75 3.546875 C 4.238281 3.503906 3.785156 3.3125 3.390625 2.96875 C 2.921875 2.550781 2.632812 2.09375 2.53125 1.59375 C 2.4375 1.101562 2.507812 0.71875 2.75 0.4375 Z M 9.75 -0.859375 C 9.332031 -0.390625 9.171875 0.453125 9.265625 1.671875 C 9.367188 2.898438 9.832031 3.875 10.65625 4.59375 C 11.519531 5.34375 12.566406 5.648438 13.796875 5.515625 C 15.023438 5.390625 16.019531 4.894531 16.78125 4.03125 L 19.328125 1.109375 C 20.066406 0.273438 20.40625 -0.753906 20.34375 -1.984375 C 20.289062 -3.222656 19.835938 -4.21875 18.984375 -4.96875 C 18.160156 -5.6875 17.15625 -6.023438 15.96875 -5.984375 C 14.78125 -5.953125 13.765625 -5.457031 12.921875 -4.5 Z M 9.75 -0.859375 "/></g></g></g></svg>