<svg xmlns="http://www.w3.org/2000/svg" xmlns:xlink="http://www.w3.org/1999/xlink" width="500" zoomAndPan="magnify" viewBox="0 0 375 374.999991" height="500" preserveAspectRatio="xMidYMid meet" version="1.0"><defs><clipPath id="cb6027744f"><path d="M 187.5 0 C 83.945312 0 0 83.945312 0 187.5 C 0 291.054688 83.945312 375 187.5 375 C 291.054688 375 375 291.054688 375 187.5 C 375 83.945312 291.054688 0 187.5 0 Z M 187.5 0 " clip-rule="nonzero"/></clipPath></defs><g clip-path="url(#cb6027744f)"><rect x="-37.5" width="450" fill="#fd874c" y="-37.499999" height="449.999989" fill-opacity="1"/></g><path fill="#ffffff" d="M 122.53125 259.929688 C 121.769531 259.839844 120.125 260.125 118.996094 260.074219 C 119.097656 260.972656 118.507812 263.773438 119.816406 265.996094 C 120.476562 267.117188 120.96875 267.695312 123.578125 271.027344 C 122.75 268.476562 122.375 260.59375 122.53125 259.929688 " fill-opacity="1" fill-rule="nonzero"/><path fill="#ffffff" d="M 135.664062 185.066406 C 135.664062 185.066406 158.34375 184.246094 161.089844 184.636719 C 161.953125 179.375 162.605469 179.980469 161.480469 179.949219 C 151.777344 179.679688 140.113281 175.878906 137.519531 175.640625 C 135.113281 175.832031 136.558594 177.128906 135.785156 179.703125 C 135.882812 182.351562 134.199219 184.75 135.664062 185.066406 " fill-opacity="1" fill-rule="nonzero"/><path fill="#ffffff" d="M 122.414062 259.019531 C 122.414062 259.019531 121.390625 250.144531 122.414062 242.445312 C 122.996094 238.0625 121.394531 237.085938 119.226562 238.433594 C 118.191406 239.078125 118.304688 239.03125 118.234375 239.3125 C 116.992188 251.644531 115.929688 254.339844 117.394531 258.066406 C 118.675781 259.457031 120.78125 258.054688 122.414062 259.019531 " fill-opacity="1" fill-rule="nonzero"/><path fill="#ffffff" d="M 138.625 220.425781 C 138.144531 217.65625 137.671875 217.917969 135.992188 217.042969 C 135.609375 217.140625 122.585938 223.382812 117.878906 235.125 C 115.570312 240.871094 117.78125 236.175781 121.953125 235.476562 C 125.78125 234.839844 127.429688 237.003906 130.265625 230.113281 C 132.585938 224.480469 137.195312 220.855469 138.625 220.425781 " fill-opacity="1" fill-rule="nonzero"/><path fill="#ffffff" d="M 135.582031 264.027344 C 135.398438 264.308594 134.738281 264.800781 134.613281 265.652344 C 134.355469 267.449219 135.769531 268.089844 136.363281 271.839844 C 136.519531 272.816406 136.492188 272.816406 136.574219 272.542969 C 137.886719 267.746094 137.304688 268.5625 137.160156 265.332031 C 136.976562 264.617188 137.265625 264.996094 135.582031 264.027344 " fill-opacity="1" fill-rule="nonzero"/><path fill="#ffffff" d="M 150.3125 248.511719 C 148.203125 254.207031 136.269531 261.0625 135.515625 262.640625 C 135.515625 262.640625 137.535156 263.691406 138.085938 264.035156 C 139.5 263.066406 137.917969 264.808594 141.882812 261.1875 C 145.679688 257.714844 151.285156 251.832031 151.285156 251.832031 C 151.113281 251.140625 150.777344 249.066406 150.3125 248.511719 " fill-opacity="1" fill-rule="nonzero"/><path fill="#ffffff" d="M 256.683594 260.074219 C 255.554688 260.125 253.914062 259.839844 253.148438 259.929688 C 253.304688 260.59375 252.929688 268.476562 252.101562 271.027344 C 254.710938 267.695312 255.207031 267.117188 255.867188 265.996094 C 257.171875 263.773438 256.585938 260.972656 256.683594 260.074219 " fill-opacity="1" fill-rule="nonzero"/><path fill="#ffffff" d="M 256.457031 238.433594 C 254.28125 237.085938 252.6875 238.0625 253.269531 242.445312 C 254.289062 250.144531 253.269531 259.019531 253.269531 259.019531 C 254.902344 258.054688 257.007812 259.457031 258.289062 258.066406 C 259.753906 254.339844 258.691406 251.644531 257.445312 239.3125 C 257.378906 239.03125 257.492188 239.078125 256.457031 238.433594 " fill-opacity="1" fill-rule="nonzero"/><path fill="#ffffff" d="M 225.371094 248.511719 C 224.902344 249.066406 224.570312 251.140625 224.394531 251.832031 C 224.394531 251.832031 230 257.714844 233.800781 261.1875 C 237.765625 264.808594 236.179688 263.066406 237.59375 264.035156 C 238.144531 263.691406 240.164062 262.640625 240.164062 262.640625 C 239.410156 261.0625 227.480469 254.207031 225.371094 248.511719 " fill-opacity="1" fill-rule="nonzero"/><path fill="#ffffff" d="M 137.574219 216.191406 C 142.015625 218.082031 138.128906 219.675781 142.003906 222.992188 C 142.863281 222.820312 143.683594 221.828125 144.269531 221.226562 C 147.640625 217.765625 147.566406 218.367188 152.054688 216.523438 C 154.410156 215.554688 158.460938 211.800781 162.882812 211.875 C 162.644531 211.234375 162.421875 210.585938 162.210938 209.929688 C 157.007812 208.546875 158.210938 208.714844 148.625 211.820312 C 140.421875 214.480469 138.855469 212.421875 136.089844 214.773438 C 135.570312 215.207031 136.945312 215.921875 137.574219 216.191406 " fill-opacity="1" fill-rule="nonzero"/><path fill="#ffffff" d="M 154.964844 247.300781 C 157.3125 243.167969 157.449219 240.558594 157.667969 239.269531 C 157.140625 238.378906 156.59375 237.4375 155.867188 236.792969 C 154.59375 239.730469 153.398438 238.960938 150.777344 247.417969 C 152.953125 248.84375 151.183594 252.765625 154.964844 247.300781 " fill-opacity="1" fill-rule="nonzero"/><path fill="#ffffff" d="M 162.734375 228.734375 C 167.519531 218.925781 167.210938 221.042969 165.871094 218.386719 C 164.945312 219.464844 163.761719 220.304688 162.835938 221.394531 C 161.792969 222.621094 159.8125 228.382812 157.832031 230.84375 C 156.6875 232.261719 154.765625 232.894531 154.074219 234.601562 C 156.023438 233.851562 158.847656 237.9375 159.265625 239.328125 C 160.824219 236.617188 160.320312 233.675781 162.734375 228.734375 " fill-opacity="1" fill-rule="nonzero"/><path fill="#ffffff" d="M 118.53125 62.632812 C 114.671875 68.917969 116.816406 67.882812 117.199219 71.863281 C 118.070312 71.171875 118.3125 71.796875 118.039062 72.113281 C 119.171875 72.222656 120.78125 72.058594 120.953125 70.859375 C 121.351562 68.167969 121.121094 69.449219 121.863281 68.054688 C 123.351562 65.25 120.835938 65.132812 120.425781 64.804688 C 119.914062 64.402344 119.113281 61.699219 118.53125 62.632812 " fill-opacity="1" fill-rule="nonzero"/><path fill="#ffffff" d="M 118.953125 76.941406 C 119.382812 77.636719 120.03125 77.984375 120.578125 78.585938 C 120.726562 78.503906 120.875 78.421875 121.019531 78.332031 C 120.515625 77.160156 120.644531 75.972656 120.296875 74.734375 C 120.101562 74.03125 119.691406 73.636719 119.375 72.980469 C 116.121094 74.152344 116.765625 71.507812 117.3125 75.175781 C 118.3125 74.753906 118.574219 76.328125 118.953125 76.941406 " fill-opacity="1" fill-rule="nonzero"/><path fill="#ffffff" d="M 118.375 81.945312 C 118.96875 81.464844 120.484375 81.203125 120.382812 80.253906 C 120.261719 79.128906 118.832031 78.59375 118.296875 77.667969 C 117.941406 77.046875 117.148438 73.332031 117.660156 80.136719 C 117.886719 83.128906 117.964844 82.273438 118.375 81.945312 " fill-opacity="1" fill-rule="nonzero"/><path fill="#ffffff" d="M 119.519531 84.265625 C 119.941406 83.96875 120.210938 83.476562 120.703125 83.300781 C 120.257812 82.808594 119.148438 82.398438 118.828125 83.613281 C 118.714844 84.046875 119.042969 84.601562 119.519531 84.265625 " fill-opacity="1" fill-rule="nonzero"/><path fill="#ffffff" d="M 120.171875 85.894531 C 117.449219 83.296875 120.742188 91 122.902344 89.6875 C 123.183594 89.519531 123.128906 89.484375 122.652344 88.582031 C 121.675781 88.28125 121.054688 86.738281 120.171875 85.894531 " fill-opacity="1" fill-rule="nonzero"/><path fill="#ffffff" d="M 155.359375 195.6875 C 151.734375 196.03125 152.382812 195.863281 152.910156 196.804688 C 154.007812 198.777344 152.445312 200.152344 154.714844 203.042969 C 155.617188 202.691406 156.441406 201.375 160.804688 201.054688 C 160.652344 199.347656 160.582031 197.613281 160.585938 195.867188 C 159.050781 195.992188 158.023438 195.4375 155.359375 195.6875 " fill-opacity="1" fill-rule="nonzero"/><path fill="#ffffff" d="M 130.9375 203.8125 C 138.375 204.351562 149.882812 200.410156 152.539062 201.625 C 151.941406 200.023438 152.53125 198.035156 151.308594 196.78125 C 147.574219 196.925781 133.058594 193.410156 129.632812 194.960938 C 128.59375 198.640625 129.25 198.949219 126.789062 202.65625 C 127.355469 203.453125 129.964844 203.742188 130.9375 203.8125 " fill-opacity="1" fill-rule="nonzero"/><path fill="#ffffff" d="M 106.652344 185.925781 C 106.898438 185.96875 106.554688 186.074219 107.167969 185.808594 C 107.179688 185.753906 107.214844 185.707031 107.277344 185.679688 C 108.070312 185.296875 108.671875 184.871094 109.308594 184.261719 C 109.804688 183.78125 109.828125 184.648438 107.195312 179.996094 C 106.191406 178.222656 105.148438 176.351562 104.625 174.359375 C 103.550781 179.117188 105.078125 181.964844 106.652344 185.925781 " fill-opacity="1" fill-rule="nonzero"/><path fill="#ffffff" d="M 94.035156 171.191406 C 93.835938 170.664062 92.699219 181.109375 98.847656 187.101562 C 100.214844 188.4375 101.84375 189.050781 103.527344 189.800781 C 103.941406 189.316406 104.320312 189.035156 104.996094 188.167969 C 100.222656 186.207031 94.890625 175.40625 94.035156 171.191406 " fill-opacity="1" fill-rule="nonzero"/><path fill="#ffffff" d="M 147.394531 141.988281 C 144.59375 140.195312 145.648438 138.328125 143.765625 137.253906 C 140.769531 137.476562 136.933594 137.4375 136.296875 139.390625 C 135.648438 141.402344 133.996094 144.316406 133.148438 144.277344 C 130.539062 145.71875 133.433594 144.695312 130.886719 148.921875 C 129.761719 150.785156 129.847656 150.765625 129.859375 151.859375 C 133.082031 158.25 143.460938 151.554688 148.597656 153.863281 C 150.585938 154.757812 150.816406 155.636719 151.890625 154.660156 C 155.8125 151.097656 158.804688 154.601562 158.300781 147.441406 C 158.203125 146.03125 156.375 144.425781 155.0625 144.113281 C 153.636719 143.773438 152.300781 144.5625 150.90625 144.183594 C 149.726562 143.863281 148.34375 142.59375 147.394531 141.988281 " fill-opacity="1" fill-rule="nonzero"/><path fill="#ffffff" d="M 126.9375 197.089844 C 127.039062 195.667969 127.765625 197.199219 121.601562 193.476562 C 118.304688 191.484375 116.441406 189.613281 113.921875 186.738281 C 112.664062 185.300781 112.679688 184.753906 111.910156 184.382812 C 111.296875 184.097656 111.371094 184.785156 109.863281 185.804688 C 108.230469 186.90625 107.804688 186.75 107.339844 187.035156 C 107.539062 188.777344 104.730469 190.371094 104.386719 191.582031 C 105.96875 192.5625 107.898438 192.542969 109.632812 193.167969 C 115.53125 195.285156 119.441406 198.773438 125.371094 200.613281 C 126.160156 198.996094 126.816406 198.855469 126.9375 197.089844 " fill-opacity="1" fill-rule="nonzero"/><path fill="#ffffff" d="M 146.289062 160.253906 C 147.359375 160.117188 152.160156 158.566406 155.203125 161.421875 C 156.492188 162.023438 157.859375 163.707031 159.992188 164.789062 C 161.902344 165.761719 164.953125 166.597656 167.082031 168.011719 C 168.53125 165.605469 169.851562 164.027344 171.167969 161.582031 C 170.160156 161.109375 169.589844 160.085938 167.9375 158.898438 C 164.480469 155.292969 163.699219 156.695312 160.585938 152.714844 C 159.320312 151.097656 156.800781 153.765625 154.519531 154.398438 C 152.453125 154.964844 150.839844 158.425781 148.441406 156.597656 C 146.410156 155.046875 144.542969 154.460938 141.992188 154.761719 C 143.515625 156.949219 141.78125 160.816406 146.289062 160.253906 " fill-opacity="1" fill-rule="nonzero"/><path fill="#ffffff" d="M 112.957031 158.984375 C 112.925781 158.992188 112.890625 159.003906 112.855469 159.015625 C 112.890625 158.996094 112.957031 158.949219 112.957031 158.984375 Z M 115.628906 169.097656 C 116.9375 167.746094 118.605469 167.105469 119.671875 166.660156 C 117.242188 164.484375 116.257812 160.570312 113.082031 152.308594 C 113.1875 158.773438 113.835938 157.484375 111.8125 158.527344 C 110.640625 159.128906 111.101562 160.269531 109.246094 161.835938 C 113.679688 165.433594 112.796875 166.375 115.628906 169.097656 " fill-opacity="1" fill-rule="nonzero"/><path fill="#ffffff" d="M 122.355469 178.097656 C 125.84375 179.984375 132.09375 181.347656 133.445312 181.582031 C 133.914062 180.070312 133.5625 178.523438 133.738281 177.003906 C 133.097656 176.945312 132.441406 176.535156 131.886719 176.234375 C 126.402344 173.261719 127.898438 172.632812 125.351562 170.082031 C 124.464844 169.191406 123.015625 168.230469 121.757812 168.417969 C 116.542969 170.542969 114.625 171.277344 115.890625 172.878906 C 116.699219 173.902344 120.839844 177.277344 122.355469 178.097656 " fill-opacity="1" fill-rule="nonzero"/><path fill="#ffffff" d="M 108.941406 160.390625 C 109.449219 159.964844 109.921875 159.511719 110.339844 158.960938 C 110.402344 158.878906 110.480469 158.859375 110.554688 158.878906 C 109.929688 157.863281 109.878906 156.460938 109.558594 155.359375 C 108.589844 152.023438 107.078125 152.21875 107.15625 146.457031 C 100.820312 160.726562 108.671875 156.917969 108.941406 160.390625 " fill-opacity="1" fill-rule="nonzero"/><path fill="#ffffff" d="M 202.84375 298.445312 C 196.738281 299.964844 197.5 296.675781 197.75 299.359375 C 198.339844 302.550781 196.648438 311.921875 191.886719 316.882812 C 200.886719 319.898438 204.222656 317.492188 212.324219 315.765625 C 211.859375 307.671875 206.441406 300 202.84375 298.445312 " fill-opacity="1" fill-rule="nonzero"/><path fill="#ffffff" d="M 205.390625 285.859375 C 204.085938 285.070312 202.722656 283.421875 201.210938 284.191406 C 197.625 287.152344 188.269531 287.144531 184.800781 286.929688 C 173.695312 286.238281 172.691406 279.609375 165.097656 284.523438 C 167.367188 286.167969 168.566406 288.046875 170.066406 288.539062 C 170.660156 288.738281 170.550781 288.488281 169.730469 288.964844 C 166.710938 290.679688 167.308594 293.917969 165.945312 295.679688 C 169.90625 297.554688 171.261719 296.617188 172.457031 296.125 C 175.855469 293.152344 175.871094 296.925781 180.359375 297.042969 C 197.351562 297.488281 189.800781 297.972656 195.792969 296.359375 C 196.722656 296.109375 197.453125 296.597656 198.328125 296.773438 C 200.136719 297.140625 201.96875 295.722656 203.769531 296.125 C 203.128906 294.976562 203.117188 293.882812 202.335938 292.566406 C 201.1875 290.628906 201.605469 292.917969 198.960938 293.695312 C 198.730469 293.761719 198.550781 293.457031 198.722656 293.292969 C 200.699219 291.378906 202.261719 285.828125 205.390625 285.859375 " fill-opacity="1" fill-rule="nonzero"/><path fill="#ffffff" d="M 195.679688 298.203125 C 193.828125 298.601562 194.855469 299.800781 186.347656 298.863281 C 184.195312 298.625 182.34375 299.144531 180.191406 298.917969 C 177.648438 299.0625 177.050781 297.332031 174.746094 297.613281 C 174.785156 297.898438 177.035156 309.976562 180.351562 314.902344 C 182.683594 318.355469 184.074219 318.515625 185.242188 319.894531 C 185.457031 320.148438 190.554688 316.230469 193.089844 311.453125 C 194.890625 308.054688 197.242188 301.738281 195.679688 298.203125 " fill-opacity="1" fill-rule="nonzero"/><path fill="#ffffff" d="M 203.933594 289.996094 C 202.878906 291.789062 204.195312 289.292969 205.675781 295.371094 C 205.796875 295.851562 206.851562 297.816406 205.949219 297.75 C 205.625 297.726562 205.289062 297.75 204.941406 297.792969 C 208.152344 299.5 212.136719 306.894531 213.210938 311.492188 C 214.527344 310.910156 216.746094 311.695312 221.121094 307.167969 C 219.953125 305.160156 218.0625 296.875 203.933594 289.996094 " fill-opacity="1" fill-rule="nonzero"/><path fill="#ffffff" d="M 163.828125 296.625 C 163.238281 296.300781 163.917969 295.824219 164.175781 295.3125 C 164.222656 293.941406 164.667969 292.28125 165.28125 291.09375 C 157.101562 291.671875 153.917969 299.875 149.105469 304.609375 C 150.785156 305.472656 150.003906 306.4375 155.984375 309.054688 C 157.230469 309.511719 157.609375 309.628906 158.257812 309.625 C 158.464844 309.144531 159.246094 307.304688 159.804688 305.597656 C 162.835938 296.320312 167.617188 298.703125 163.828125 296.625 " fill-opacity="1" fill-rule="nonzero"/><path fill="#ffffff" d="M 171.890625 298.148438 C 167.675781 299.386719 167.347656 297.132812 165.707031 298.621094 C 160.59375 303.265625 161.472656 309.136719 158.605469 312.835938 C 159.894531 314.367188 162.074219 314.921875 164.28125 315.636719 C 171.027344 317.835938 173.90625 316.847656 178.023438 315.921875 C 175 311.238281 173.113281 299.898438 173.085938 298.675781 C 172.867188 297.605469 173.25 297.746094 171.890625 298.148438 " fill-opacity="1" fill-rule="nonzero"/><path fill="#ffffff" d="M 196.867188 274.59375 C 195.335938 275.375 191.335938 276.109375 189.621094 276.234375 C 175.246094 277.285156 172.148438 270.15625 166.027344 273.105469 C 163.859375 274.707031 163.664062 273.6875 166.132812 276.726562 C 167.863281 278.855469 167.167969 278.839844 170.34375 280.550781 C 174.285156 281.089844 177.238281 285.058594 184.304688 285.515625 C 203.292969 286.75 200.074219 280.476562 205.6875 274.546875 C 198.722656 271.792969 201.359375 273.371094 196.867188 274.59375 " fill-opacity="1" fill-rule="nonzero"/><path fill="#ffffff" d="M 203.984375 262.378906 C 203.460938 261.253906 202.75 259.191406 201.507812 258.453125 C 195.808594 259.496094 191.980469 263.257812 181.832031 260.25 C 179.597656 260.101562 174.839844 257.707031 172.265625 258.316406 C 168.835938 259.132812 168.027344 263.390625 166.257812 264.828125 C 167.828125 265.828125 169.304688 268.574219 171.027344 270.242188 C 174.496094 273.597656 191.394531 275.921875 198.929688 271.492188 C 200.269531 270.699219 201.257812 269.683594 201.964844 269.027344 C 208.195312 263.035156 206.761719 268.253906 203.984375 262.378906 " fill-opacity="1" fill-rule="nonzero"/><path fill="#ffffff" d="M 173.636719 240.222656 C 175.839844 239.703125 179.054688 239.488281 181.347656 239.289062 C 187.140625 237.71875 188.257812 239.933594 193.960938 240.890625 C 195.628906 241.171875 197.335938 241.007812 199.015625 241.214844 C 199.296875 241.25 200.25 240.210938 200.738281 239.261719 C 202.382812 237.03125 201.121094 232.453125 202.214844 229.195312 C 201.285156 229.480469 193.503906 231.230469 189.34375 231.441406 C 183.382812 232.753906 176.023438 228.835938 172.234375 228.472656 C 169.035156 228.171875 171.078125 227.710938 170.738281 230.855469 C 170.601562 232.132812 169.226562 236.714844 173.636719 240.222656 " fill-opacity="1" fill-rule="nonzero"/><path fill="#ffffff" d="M 200.703125 243.6875 C 197.960938 242.921875 195.824219 243.914062 191.113281 242.175781 C 187.789062 241.292969 185.457031 240.480469 181.46875 241.046875 C 172.28125 243.238281 171.949219 240.375 166.257812 248.773438 C 168.851562 251.21875 170.648438 254.378906 178.453125 257.269531 C 181.476562 258.394531 188.03125 261.625 195.980469 258.402344 C 201.410156 256.203125 202.03125 256.960938 204.132812 253.617188 C 204.84375 252.484375 205.53125 251.4375 206.488281 250.578125 C 204.136719 247.90625 204.003906 244.609375 200.703125 243.6875 " fill-opacity="1" fill-rule="nonzero"/><path fill="#ffffff" d="M 191.289062 155.789062 C 191.933594 156.511719 190.820312 157.203125 190.710938 156.34375 C 190.601562 155.488281 191.128906 155.464844 191.289062 155.789062 Z M 192.058594 156.726562 C 192.058594 157.441406 191.488281 157.246094 191.503906 156.679688 C 191.519531 156.09375 192.355469 156.304688 192.058594 156.726562 Z M 192.1875 155.859375 C 192.289062 156.097656 192.03125 156.308594 191.753906 156.023438 C 191.316406 155.550781 191.917969 155.222656 192.1875 155.859375 Z M 191.371094 157.179688 C 191.859375 157.246094 191.984375 157.496094 192.304688 157.277344 C 193.050781 156.800781 193.230469 155.164062 191.753906 154.957031 C 190.03125 154.714844 189.769531 156.949219 191.371094 157.179688 " fill-opacity="1" fill-rule="nonzero"/><path fill="#ffffff" d="M 203.308594 145.933594 C 203.59375 145.828125 204.050781 144.390625 206.097656 143.988281 C 205.097656 143.425781 205.03125 142.652344 202.640625 141.664062 C 201.769531 141.304688 200.964844 140.785156 200.792969 139.964844 C 198.128906 147.707031 202.867188 146.449219 203.308594 145.933594 " fill-opacity="1" fill-rule="nonzero"/><path fill="#ffffff" d="M 171.078125 137.808594 C 175.679688 140.203125 174.472656 140.574219 176.078125 139.652344 C 166.160156 130.84375 153.550781 127.324219 157.316406 111.742188 C 159.082031 100.128906 167.5625 96.039062 176.257812 92.925781 C 164.261719 94.066406 155.375 104.417969 155.585938 117.882812 C 156.066406 130.238281 165.503906 133.902344 171.078125 137.808594 " fill-opacity="1" fill-rule="nonzero"/><path fill="#ffffff" d="M 220.976562 111.742188 C 224.746094 127.324219 212.136719 130.84375 202.21875 139.652344 C 203.824219 140.574219 202.613281 140.203125 207.21875 137.808594 C 212.789062 133.902344 222.230469 130.238281 222.710938 117.882812 C 222.921875 104.417969 214.035156 94.066406 202.035156 92.925781 C 210.734375 96.039062 219.214844 100.128906 220.976562 111.742188 " fill-opacity="1" fill-rule="nonzero"/><path fill="#ffffff" d="M 186.203125 154.722656 C 186.324219 154.339844 187.113281 151.664062 187.609375 151.421875 C 186.828125 148.734375 187.179688 139.019531 186.671875 136.484375 C 186.671875 136.484375 186.160156 142.417969 186.019531 144.167969 C 184.964844 157.167969 184.914062 152.835938 186.203125 154.722656 " fill-opacity="1" fill-rule="nonzero"/><path fill="#ffffff" d="M 188.171875 151.46875 C 188.355469 148.191406 190.71875 138.570312 195.40625 131.566406 C 185.722656 143.085938 187.507812 146.335938 188.171875 151.46875 " fill-opacity="1" fill-rule="nonzero"/><path fill="#ffffff" d="M 196.753906 161.511719 C 195.203125 162.285156 192.246094 164.550781 190.054688 163.449219 C 191.285156 166.363281 193.871094 165.859375 194.175781 166.027344 C 193.046875 167.503906 189.734375 166.414062 188.421875 160.125 C 188.226562 157.0625 187.660156 155.5625 187.9375 154.324219 C 188.035156 153.898438 187.4375 153.617188 187.214844 154.019531 C 186.699219 154.972656 186.03125 155.859375 185.574219 156.835938 C 185.375 156.328125 185.140625 156.015625 184.699219 155.832031 C 184.644531 156.703125 184.726562 157.324219 184.40625 157.277344 C 184.855469 161.972656 182.230469 167.199219 179.238281 165.648438 C 180.828125 165.410156 182.105469 164.445312 182.824219 162.460938 C 179.933594 161.941406 178.988281 163.105469 175.378906 160.808594 C 173.539062 162.71875 173.039062 164.65625 171.257812 167.023438 C 162.035156 184.644531 160.125 197.859375 167.71875 215.296875 C 172.191406 225.59375 179.597656 230.320312 190.964844 228.054688 C 198.160156 226.617188 202.503906 226.660156 206.488281 218.1875 C 216.390625 197.082031 204.675781 157.546875 196.753906 161.511719 " fill-opacity="1" fill-rule="nonzero"/><path fill="#ffffff" d="M 197.929688 154.632812 C 197.050781 152.761719 195.226562 154.703125 193.707031 155.3125 C 194.382812 156.34375 194.027344 157.449219 193.101562 157.9375 C 192.953125 158.066406 192.84375 157.992188 193.417969 158.125 C 194.820312 158.449219 195.007812 157.023438 196.074219 156.578125 C 194.761719 157.972656 195.226562 159.25 193.214844 158.851562 C 191.515625 158.515625 192.066406 158.839844 190.949219 160.992188 C 194.308594 161.503906 195.0625 159.320312 197.914062 158.6875 C 199.589844 159.59375 202.605469 155.429688 203.507812 154.03125 C 202.703125 154.351562 201.578125 154.570312 200.964844 153.980469 C 199.960938 154.867188 199.234375 156.433594 197.835938 157.359375 C 199.421875 154.160156 198.3125 156.046875 200.464844 152.960938 C 201.460938 151.53125 200.8125 151.03125 203.253906 148.339844 C 204.421875 147.171875 205.234375 147.128906 203.667969 146.894531 C 203.128906 146.8125 202.496094 147.457031 201.53125 147.351562 C 199.925781 147.179688 199.019531 145.78125 197.082031 146.792969 C 196.621094 147.78125 197.449219 148.726562 197.515625 149.71875 C 197.570312 150.464844 197.332031 151.070312 197.140625 151.785156 C 196.824219 152.984375 197.605469 153.054688 198.09375 153.722656 C 198.542969 154.339844 198.066406 154.914062 197.929688 154.632812 " fill-opacity="1" fill-rule="nonzero"/><path fill="#ffffff" d="M 178.777344 158.761719 C 177.117188 157.484375 178.625 156.035156 177.019531 155.101562 C 175.550781 154.253906 173.816406 154.316406 172.527344 153.449219 C 171.863281 153.003906 171.378906 152.339844 170.769531 151.820312 C 171.476562 154.007812 171.074219 152.15625 174.335938 157.066406 C 175.542969 158.871094 174.6875 158.332031 175.367188 158.5625 C 176.9375 160.246094 179.589844 159.742188 181.222656 159.863281 C 180.476562 158.332031 179.097656 156.457031 178.929688 155.753906 C 178.742188 156.175781 178.605469 156.644531 178.632812 157.109375 C 178.441406 158.152344 179.277344 159.144531 178.777344 158.761719 " fill-opacity="1" fill-rule="nonzero"/><path fill="#ffffff" d="M 180.367188 154.113281 C 180.714844 154.617188 180.269531 154.640625 180.265625 155.019531 C 180.261719 155.332031 179.992188 155.507812 179.714844 155.25 C 179.046875 154.585938 179.964844 153.542969 180.367188 154.113281 Z M 181.015625 155.425781 C 181.0625 155.785156 180.3125 155.855469 180.441406 155.1875 C 180.515625 154.910156 180.945312 154.847656 181.015625 155.425781 Z M 181.082031 154.203125 C 181.246094 154.230469 181.304688 154.519531 181.019531 154.574219 C 180.71875 154.625 180.65625 154.132812 181.082031 154.203125 Z M 182.027344 154.828125 C 182.355469 153.144531 179.875 152.832031 179.21875 154.28125 C 178.515625 156.03125 181.703125 156.507812 182.027344 154.828125 " fill-opacity="1" fill-rule="nonzero"/><path fill="#ffffff" d="M 178.230469 155.492188 C 178.335938 155.210938 177.804688 153.449219 176.847656 153.007812 C 175.296875 152.292969 173.917969 152.804688 171.824219 152.003906 C 174.578125 154.339844 176.921875 153.265625 178.230469 155.492188 " fill-opacity="1" fill-rule="nonzero"/><path fill="#ffffff" d="M 173.652344 141.863281 C 173.652344 143.101562 173.828125 144.324219 173.425781 145.507812 C 173.441406 145.515625 173.457031 145.515625 173.472656 145.523438 C 173.867188 147.015625 174.457031 146.230469 171.964844 145.851562 C 172.167969 147.03125 173.324219 147.78125 173.878906 148.824219 C 174.34375 149.695312 174.089844 150.664062 174.636719 151.53125 C 176.027344 151.597656 176.988281 151.75 177.988281 152.773438 C 177.570312 149.90625 179.597656 146.796875 177.632812 146.605469 C 178.503906 135.976562 178.066406 143.011719 173.652344 141.863281 " fill-opacity="1" fill-rule="nonzero"/><path fill="#ffffff" d="M 181.445312 157.597656 C 181.960938 158.351562 182.644531 159.230469 182.6875 160.175781 C 182.769531 160.199219 182.847656 160.226562 182.929688 160.257812 C 183.53125 157.753906 183.488281 158.023438 182.585938 155.859375 C 181.183594 157.621094 180.382812 156.039062 181.445312 157.597656 " fill-opacity="1" fill-rule="nonzero"/><path fill="#ffffff" d="M 183.777344 153.921875 C 184.414062 153.078125 184.765625 152.996094 184.765625 152.007812 C 185.179688 148.917969 184.949219 147.335938 184.707031 144.390625 C 183.449219 129.457031 186.710938 124.097656 189.6875 116.578125 C 186.957031 122.105469 183.289062 128.347656 182.960938 137.359375 C 182.949219 137.640625 182.925781 154.011719 183.066406 155.070312 C 183.066406 155.070312 183.441406 154.355469 183.777344 153.921875 " fill-opacity="1" fill-rule="nonzero"/><path fill="#ffffff" d="M 189.605469 162.054688 C 189.769531 160.847656 190.300781 158.609375 191.222656 157.808594 C 190.429688 157.445312 190.945312 157.257812 190.171875 157.257812 C 188.695312 158.726562 189.1875 160.316406 189.605469 162.054688 " fill-opacity="1" fill-rule="nonzero"/><path fill="#ffffff" d="M 189.605469 162.054688 C 189.605469 162.0625 189.605469 162.066406 189.605469 162.070312 C 189.605469 162.152344 189.613281 162.089844 189.605469 162.054688 " fill-opacity="1" fill-rule="nonzero"/><path fill="#ffffff" d="M 129.644531 94.183594 C 132.804688 96.328125 135.464844 94.792969 136.492188 98.335938 C 136.589844 98.371094 136.613281 98.398438 136.640625 98.433594 C 138.234375 97.484375 140.238281 97.121094 142.035156 97.097656 C 145.515625 97.050781 145.167969 97.878906 145.273438 97.035156 C 147.179688 93.519531 144.5625 88.980469 143.945312 86.890625 C 143.628906 85.828125 141.738281 68.023438 132.875 64.820312 C 125.984375 63.917969 135.355469 74.140625 131.847656 87.832031 C 131.417969 89.523438 131.023438 92.625 129.644531 94.183594 " fill-opacity="1" fill-rule="nonzero"/><path fill="#ffffff" d="M 119.621094 144.167969 C 131.148438 144.316406 131.066406 138.234375 133.742188 135.890625 C 136.589844 133.390625 140.21875 134.699219 141.417969 134.226562 C 145.0625 134.351562 149.097656 132.789062 150.855469 129.449219 C 151.964844 127.335938 151.210938 125.171875 150.402344 123.105469 C 148.574219 118.417969 151.488281 117.695312 148.144531 105.308594 C 147.476562 102.828125 146.289062 101.742188 144.652344 100.792969 C 139.410156 95.851562 134.054688 102.933594 131.34375 103.335938 C 129.304688 103.640625 125.328125 102.675781 125.515625 99.964844 C 125.523438 99.832031 125.703125 99.722656 125.804688 99.84375 C 127.882812 102.25 131.699219 102.910156 134.910156 100.46875 C 134.644531 96.976562 132.132812 99.242188 129.777344 97.46875 C 125.90625 94.550781 126.277344 96.691406 123.640625 94.570312 C 116.304688 88.671875 116.332031 83.277344 115.550781 73.660156 C 115.296875 70.5625 113.523438 68.972656 115.390625 65.359375 C 116.296875 63.597656 117.699219 61.988281 118.304688 60.082031 C 118.949219 58.054688 119.210938 54.863281 116.339844 55.03125 C 112.628906 55.25 108.515625 59.558594 105.132812 62.648438 C 92.503906 74.199219 88.691406 85.875 89.207031 102.703125 C 89.453125 110.542969 90.761719 118.136719 94.816406 124.964844 C 99.804688 133.363281 109.933594 144.039062 119.621094 144.167969 " fill-opacity="1" fill-rule="nonzero"/><path fill="#ffffff" d="M 237.535156 175.640625 C 234.941406 175.878906 223.277344 179.679688 213.578125 179.949219 C 212.449219 179.980469 213.105469 179.375 213.96875 184.636719 C 216.710938 184.246094 239.390625 185.066406 239.390625 185.066406 C 240.859375 184.75 239.175781 182.351562 239.269531 179.703125 C 238.496094 177.128906 239.945312 175.832031 237.535156 175.640625 " fill-opacity="1" fill-rule="nonzero"/><path fill="#ffffff" d="M 257.179688 235.125 C 252.46875 223.382812 239.449219 217.140625 239.066406 217.042969 C 237.386719 217.917969 236.910156 217.65625 236.4375 220.425781 C 237.863281 220.855469 242.46875 224.480469 244.792969 230.113281 C 247.625 237.003906 249.273438 234.839844 253.101562 235.476562 C 257.277344 236.175781 259.488281 240.871094 257.179688 235.125 " fill-opacity="1" fill-rule="nonzero"/><path fill="#ffffff" d="M 239.472656 264.027344 C 237.789062 264.996094 238.082031 264.617188 237.898438 265.332031 C 237.753906 268.5625 237.167969 267.746094 238.484375 272.542969 C 238.5625 272.816406 238.539062 272.816406 238.695312 271.839844 C 239.289062 268.089844 240.703125 267.449219 240.441406 265.652344 C 240.320312 264.800781 239.660156 264.308594 239.472656 264.027344 " fill-opacity="1" fill-rule="nonzero"/><path fill="#ffffff" d="M 230.789062 221.226562 C 231.371094 221.828125 232.195312 222.820312 233.054688 222.992188 C 236.929688 219.675781 233.039062 218.082031 237.484375 216.191406 C 238.109375 215.921875 239.488281 215.207031 238.96875 214.773438 C 236.203125 212.421875 234.636719 214.480469 226.429688 211.820312 C 216.847656 208.714844 218.054688 208.546875 212.84375 209.929688 C 212.636719 210.585938 212.410156 211.234375 212.175781 211.875 C 216.597656 211.800781 220.648438 215.554688 223.003906 216.523438 C 227.492188 218.367188 227.417969 217.765625 230.789062 221.226562 " fill-opacity="1" fill-rule="nonzero"/><path fill="#ffffff" d="M 217.386719 239.269531 C 217.605469 240.558594 217.746094 243.167969 220.09375 247.300781 C 223.875 252.765625 222.101562 248.84375 224.277344 247.417969 C 221.660156 238.960938 220.460938 239.730469 219.1875 236.792969 C 218.464844 237.4375 217.917969 238.378906 217.386719 239.269531 " fill-opacity="1" fill-rule="nonzero"/><path fill="#ffffff" d="M 215.792969 239.328125 C 216.210938 237.9375 219.03125 233.851562 220.984375 234.601562 C 220.289062 232.894531 218.367188 232.261719 217.226562 230.84375 C 215.246094 228.382812 213.261719 222.621094 212.21875 221.394531 C 211.296875 220.304688 210.113281 219.464844 209.1875 218.386719 C 207.847656 221.042969 207.539062 218.925781 212.324219 228.734375 C 214.738281 233.675781 214.234375 236.617188 215.792969 239.328125 " fill-opacity="1" fill-rule="nonzero"/><path fill="#ffffff" d="M 254.101562 70.859375 C 254.277344 72.058594 255.882812 72.222656 257.019531 72.113281 C 256.746094 71.796875 256.984375 71.171875 257.855469 71.863281 C 258.238281 67.882812 260.382812 68.917969 256.523438 62.632812 C 255.945312 61.699219 255.140625 64.402344 254.632812 64.804688 C 254.222656 65.132812 251.703125 65.25 253.195312 68.054688 C 253.9375 69.449219 253.707031 68.167969 254.101562 70.859375 " fill-opacity="1" fill-rule="nonzero"/><path fill="#ffffff" d="M 255.679688 72.980469 C 255.363281 73.636719 254.957031 74.03125 254.757812 74.734375 C 254.414062 75.972656 254.542969 77.160156 254.039062 78.332031 C 254.183594 78.421875 254.332031 78.503906 254.480469 78.585938 C 255.027344 77.984375 255.671875 77.636719 256.105469 76.941406 C 256.484375 76.328125 256.746094 74.753906 257.746094 75.175781 C 258.292969 71.507812 258.9375 74.152344 255.679688 72.980469 " fill-opacity="1" fill-rule="nonzero"/><path fill="#ffffff" d="M 257.394531 80.136719 C 257.910156 73.332031 257.117188 77.046875 256.761719 77.667969 C 256.226562 78.59375 254.796875 79.128906 254.675781 80.253906 C 254.570312 81.203125 256.089844 81.464844 256.683594 81.945312 C 257.09375 82.273438 257.171875 83.128906 257.394531 80.136719 " fill-opacity="1" fill-rule="nonzero"/><path fill="#ffffff" d="M 254.355469 83.300781 C 254.847656 83.476562 255.117188 83.96875 255.539062 84.265625 C 256.015625 84.601562 256.34375 84.046875 256.226562 83.613281 C 255.910156 82.398438 254.800781 82.808594 254.355469 83.300781 " fill-opacity="1" fill-rule="nonzero"/><path fill="#ffffff" d="M 252.15625 89.6875 C 254.316406 91 257.609375 83.296875 254.886719 85.894531 C 254.003906 86.738281 253.382812 88.28125 252.402344 88.582031 C 251.929688 89.484375 251.871094 89.519531 252.15625 89.6875 " fill-opacity="1" fill-rule="nonzero"/><path fill="#ffffff" d="M 214.472656 195.867188 C 214.476562 197.613281 214.40625 199.347656 214.253906 201.054688 C 218.613281 201.375 219.4375 202.691406 220.34375 203.042969 C 222.613281 200.152344 221.050781 198.777344 222.148438 196.804688 C 222.671875 195.863281 223.324219 196.03125 219.699219 195.6875 C 217.035156 195.4375 216.007812 195.992188 214.472656 195.867188 " fill-opacity="1" fill-rule="nonzero"/><path fill="#ffffff" d="M 244.121094 203.8125 C 245.089844 203.742188 247.699219 203.453125 248.269531 202.65625 C 245.808594 198.949219 246.460938 198.640625 245.425781 194.960938 C 242 193.410156 227.484375 196.925781 223.746094 196.78125 C 222.527344 198.035156 223.113281 200.023438 222.519531 201.625 C 225.171875 200.410156 236.679688 204.351562 244.121094 203.8125 " fill-opacity="1" fill-rule="nonzero"/><path fill="#ffffff" d="M 265.746094 184.261719 C 266.382812 184.871094 266.988281 185.296875 267.78125 185.679688 C 267.84375 185.707031 267.875 185.753906 267.890625 185.808594 C 268.503906 186.074219 268.15625 185.96875 268.40625 185.925781 C 269.976562 181.964844 271.503906 179.117188 270.429688 174.359375 C 269.910156 176.351562 268.867188 178.222656 267.859375 179.996094 C 265.226562 184.648438 265.25 183.78125 265.746094 184.261719 " fill-opacity="1" fill-rule="nonzero"/><path fill="#ffffff" d="M 281.019531 171.191406 C 280.167969 175.40625 274.835938 186.207031 270.058594 188.167969 C 270.734375 189.035156 271.117188 189.316406 271.527344 189.800781 C 273.210938 189.050781 274.839844 188.4375 276.210938 187.101562 C 282.359375 181.109375 281.222656 170.664062 281.019531 171.191406 " fill-opacity="1" fill-rule="nonzero"/><path fill="#ffffff" d="M 241.910156 144.277344 C 241.0625 144.316406 239.40625 141.402344 238.757812 139.390625 C 238.121094 137.4375 234.285156 137.476562 231.289062 137.253906 C 229.410156 138.328125 230.460938 140.195312 227.664062 141.988281 C 226.714844 142.59375 225.332031 143.863281 224.152344 144.183594 C 222.757812 144.5625 221.421875 143.773438 219.992188 144.113281 C 218.683594 144.425781 216.855469 146.03125 216.757812 147.441406 C 216.253906 154.601562 219.246094 151.097656 223.167969 154.660156 C 224.238281 155.636719 224.46875 154.757812 226.460938 153.863281 C 231.59375 151.554688 241.976562 158.25 245.199219 151.859375 C 245.210938 150.765625 245.296875 150.785156 244.171875 148.921875 C 241.625 144.695312 244.515625 145.71875 241.910156 144.277344 " fill-opacity="1" fill-rule="nonzero"/><path fill="#ffffff" d="M 267.71875 187.035156 C 267.253906 186.75 266.828125 186.90625 265.199219 185.804688 C 263.683594 184.785156 263.757812 184.097656 263.148438 184.382812 C 262.378906 184.753906 262.394531 185.300781 261.136719 186.738281 C 258.617188 189.613281 256.75 191.484375 253.457031 193.476562 C 247.292969 197.199219 248.019531 195.667969 248.117188 197.089844 C 248.242188 198.855469 248.898438 198.996094 249.683594 200.613281 C 255.613281 198.773438 259.527344 195.285156 265.425781 193.167969 C 267.160156 192.542969 269.089844 192.5625 270.671875 191.582031 C 270.328125 190.371094 267.519531 188.777344 267.71875 187.035156 " fill-opacity="1" fill-rule="nonzero"/><path fill="#ffffff" d="M 226.617188 156.597656 C 224.21875 158.425781 222.605469 154.964844 220.535156 154.398438 C 218.257812 153.765625 215.738281 151.097656 214.472656 152.714844 C 211.359375 156.695312 210.578125 155.292969 207.121094 158.898438 C 205.464844 160.085938 204.898438 161.109375 203.886719 161.582031 C 205.207031 164.027344 206.527344 165.605469 207.976562 168.011719 C 210.105469 166.597656 213.152344 165.761719 215.066406 164.789062 C 217.199219 163.707031 218.566406 162.023438 219.855469 161.421875 C 222.898438 158.566406 227.695312 160.117188 228.769531 160.253906 C 233.277344 160.816406 231.542969 156.949219 233.070312 154.761719 C 230.511719 154.460938 228.648438 155.046875 226.617188 156.597656 " fill-opacity="1" fill-rule="nonzero"/><path fill="#ffffff" d="M 262.203125 159.015625 C 262.167969 159.003906 262.132812 158.992188 262.101562 158.984375 C 262.097656 158.949219 262.167969 158.996094 262.203125 159.015625 Z M 255.382812 166.660156 C 256.449219 167.105469 258.117188 167.746094 259.429688 169.097656 C 262.261719 166.375 261.378906 165.433594 265.8125 161.835938 C 263.957031 160.269531 264.414062 159.128906 263.246094 158.527344 C 261.222656 157.484375 261.871094 158.773438 261.972656 152.308594 C 258.800781 160.570312 257.8125 164.484375 255.382812 166.660156 " fill-opacity="1" fill-rule="nonzero"/><path fill="#ffffff" d="M 249.707031 170.082031 C 247.160156 172.632812 248.65625 173.261719 243.171875 176.234375 C 242.617188 176.535156 241.960938 176.945312 241.320312 177.003906 C 241.492188 178.523438 241.144531 180.070312 241.613281 181.582031 C 242.964844 181.347656 249.210938 179.984375 252.703125 178.097656 C 254.214844 177.277344 258.355469 173.902344 259.167969 172.878906 C 260.429688 171.277344 258.515625 170.542969 253.300781 168.417969 C 252.042969 168.230469 250.589844 169.191406 249.707031 170.082031 " fill-opacity="1" fill-rule="nonzero"/><path fill="#ffffff" d="M 265.496094 155.359375 C 265.175781 156.460938 265.128906 157.863281 264.503906 158.878906 C 264.578125 158.859375 264.65625 158.878906 264.71875 158.960938 C 265.132812 159.511719 265.609375 159.964844 266.117188 160.390625 C 266.386719 156.917969 274.238281 160.726562 267.902344 146.457031 C 267.980469 152.21875 266.472656 152.023438 265.496094 155.359375 " fill-opacity="1" fill-rule="nonzero"/><path fill="#ffffff" d="M 233.019531 97.097656 C 234.820312 97.121094 236.824219 97.484375 238.417969 98.433594 C 238.441406 98.398438 238.46875 98.371094 238.566406 98.335938 C 239.589844 94.792969 242.253906 96.328125 245.410156 94.183594 C 244.03125 92.625 243.640625 89.523438 243.207031 87.832031 C 239.703125 74.140625 249.070312 63.917969 242.183594 64.820312 C 233.320312 68.023438 231.429688 85.828125 231.113281 86.890625 C 230.496094 88.980469 227.878906 93.519531 229.785156 97.035156 C 229.886719 97.878906 229.542969 97.050781 233.019531 97.097656 " fill-opacity="1" fill-rule="nonzero"/><path fill="#ffffff" d="M 269.925781 62.648438 C 266.542969 59.558594 262.429688 55.25 258.71875 55.03125 C 255.847656 54.863281 256.105469 58.054688 256.753906 60.082031 C 257.359375 61.988281 258.757812 63.597656 259.667969 65.359375 C 261.53125 68.972656 259.757812 70.5625 259.503906 73.660156 C 258.722656 83.277344 258.75 88.671875 251.417969 94.570312 C 248.78125 96.691406 249.152344 94.550781 245.277344 97.46875 C 242.925781 99.242188 240.414062 96.976562 240.144531 100.46875 C 243.359375 102.910156 247.175781 102.25 249.25 99.84375 C 249.355469 99.722656 249.53125 99.832031 249.539062 99.964844 C 249.730469 102.675781 245.753906 103.640625 243.710938 103.335938 C 241.003906 102.933594 235.648438 95.851562 230.402344 100.792969 C 228.769531 101.742188 227.582031 102.828125 226.914062 105.308594 C 223.566406 117.695312 226.484375 118.417969 224.65625 123.105469 C 223.847656 125.171875 223.089844 127.335938 224.203125 129.449219 C 225.960938 132.789062 229.996094 134.351562 233.640625 134.226562 C 234.835938 134.699219 238.464844 133.390625 241.316406 135.890625 C 243.988281 138.234375 243.910156 144.316406 255.4375 144.167969 C 265.125 144.039062 275.25 133.363281 280.238281 124.964844 C 284.292969 118.136719 285.605469 110.542969 285.847656 102.703125 C 286.367188 85.875 282.550781 74.199219 269.925781 62.648438 " fill-opacity="1" fill-rule="nonzero"/></svg>